<svg width="92" height="92" viewBox="0 0 92 92" fill="none" xmlns="http://www.w3.org/2000/svg">
<path d="M26.8329 23V22.5C26.5568 22.5 26.3329 22.7239 26.3329 23H26.8329ZM66.444 23H66.944C66.944 22.7239 66.7202 22.5 66.444 22.5V23ZM66.444 71.5556V72.0556C66.7202 72.0556 66.944 71.8317 66.944 71.5556H66.444ZM26.8329 71.5556H26.3329C26.3329 71.8317 26.5568 72.0556 26.8329 72.0556V71.5556ZM65.944 29.3889C65.944 29.665 66.1679 29.8889 66.444 29.8889C66.7202 29.8889 66.944 29.665 66.944 29.3889H65.944ZM66.944 33.8611C66.944 33.585 66.7202 33.3611 66.444 33.3611C66.1679 33.3611 65.944 33.585 65.944 33.8611H66.944ZM65.944 35.7778C65.944 36.0539 66.1679 36.2778 66.444 36.2778C66.7202 36.2778 66.944 36.0539 66.944 35.7778H65.944ZM66.944 40.25C66.944 39.9739 66.7202 39.75 66.444 39.75C66.1679 39.75 65.944 39.9739 65.944 40.25H66.944ZM80.4996 11.5L80.9996 11.5V11.5H80.4996ZM80.4996 83.0556H79.9996H80.4996ZM77.944 85.6111V86.1111V85.6111ZM40.8885 85.1111C40.6123 85.1111 40.3885 85.335 40.3885 85.6111C40.3885 85.8873 40.6123 86.1111 40.8885 86.1111L40.8885 85.1111ZM35.7774 86.1111C36.0535 86.1111 36.2774 85.8873 36.2774 85.6111C36.2774 85.335 36.0535 85.1111 35.7774 85.1111V86.1111ZM13.2774 51.75C13.2774 51.4739 13.0535 51.25 12.7774 51.25C12.5012 51.25 12.2774 51.4739 12.2774 51.75H13.2774ZM12.2774 32.5833C12.2774 32.8595 12.5012 33.0833 12.7774 33.0833C13.0535 33.0833 13.2774 32.8595 13.2774 32.5833H12.2774ZM12.7774 11.5L13.2774 11.5L12.7774 11.5ZM77.944 8.94446V8.44446V8.94446ZM15.3329 8.94446V8.44446V8.94446ZM57.4996 17.3889C57.2234 17.3889 56.9996 17.6128 56.9996 17.8889C56.9996 18.165 57.2234 18.3889 57.4996 18.3889V17.3889ZM53.0274 18.3889C53.3035 18.3889 53.5274 18.165 53.5274 17.8889C53.5274 17.6128 53.3035 17.3889 53.0274 17.3889V18.3889ZM21.3683 18.2425C21.5635 18.4377 21.8801 18.4377 22.0754 18.2425C22.2706 18.0472 22.2706 17.7306 22.0754 17.5354L21.3683 18.2425ZM14.4087 9.86869C14.2134 9.67343 13.8969 9.67343 13.7016 9.86869C13.5063 10.064 13.5063 10.3805 13.7016 10.5758L14.4087 9.86869ZM71.2016 17.5354C71.0063 17.7306 71.0063 18.0472 71.2016 18.2425C71.3969 18.4377 71.7134 18.4377 71.9087 18.2425L71.2016 17.5354ZM79.5754 10.5758C79.7706 10.3805 79.7706 10.064 79.5754 9.86869C79.3801 9.67343 79.0635 9.67343 78.8683 9.86869L79.5754 10.5758ZM22.0754 77.0202C22.2706 76.825 22.2706 76.5084 22.0754 76.3131C21.8801 76.1179 21.5635 76.1179 21.3683 76.3131L22.0754 77.0202ZM13.7016 83.9798C13.5063 84.1751 13.5063 84.4916 13.7016 84.6869C13.8969 84.8822 14.2134 84.8822 14.4087 84.6869L13.7016 83.9798ZM71.9087 76.3131C71.7134 76.1179 71.3969 76.1179 71.2016 76.3131C71.0063 76.5084 71.0063 76.825 71.2016 77.0202L71.9087 76.3131ZM78.8683 84.6869C79.0635 84.8822 79.3801 84.8822 79.5754 84.6869C79.7706 84.4916 79.7706 84.1751 79.5754 83.9798L78.8683 84.6869ZM42.1663 33.5118L41.9178 33.0778C41.68 33.214 41.5961 33.5163 41.7298 33.7556C41.8634 33.9949 42.1648 34.082 42.4055 33.9508L42.1663 33.5118ZM55.5829 34.5002L55.26 34.8819L55.5829 34.5002ZM60.694 63.8891L60.3711 64.2708C60.5099 64.3883 60.7017 64.4211 60.8717 64.3564C61.0418 64.2918 61.1633 64.1399 61.189 63.9598L60.694 63.8891ZM52.3885 42.8057L51.8953 42.7236C51.8908 42.7507 51.8885 42.7782 51.8885 42.8057H52.3885ZM56.9126 60.6894L56.5896 61.0711L56.9126 60.6894ZM35.2777 60.0711C35.2863 60.3471 35.517 60.5639 35.793 60.5552C36.0691 60.5466 36.2858 60.3159 36.2772 60.0399L35.2777 60.0711ZM39.2919 36.8008C39.504 36.624 39.5327 36.3087 39.3559 36.0966C39.1791 35.8844 38.8638 35.8558 38.6517 36.0326L39.2919 36.8008ZM43.9033 50.9137C43.7943 50.66 43.5002 50.5427 43.2465 50.6518C42.9928 50.7608 42.8755 51.0549 42.9846 51.3086L43.9033 50.9137ZM44.0828 55.5833L44.5005 55.8583L44.0828 55.5833ZM30.6663 65.1667L30.3127 64.8131L30.6663 65.1667ZM27.4718 71.5556L26.9767 71.4857C26.9565 71.6291 26.9994 71.7742 27.0944 71.8835C27.1893 71.9928 27.327 72.0556 27.4718 72.0556V71.5556ZM63.2496 71.5556V72.0556C63.4151 72.0556 63.5699 71.9737 63.663 71.8368C63.7561 71.6999 63.7754 71.5259 63.7146 71.3719L63.2496 71.5556ZM56.2218 60.6945L56.4477 60.2484L56.2218 60.6945ZM45.9996 63.25L45.7515 62.8159L45.9996 63.25ZM12.7774 37.0556L13.2305 36.8441C13.1483 36.6681 12.9716 36.5556 12.7774 36.5556C12.5831 36.5556 12.4064 36.6681 12.3243 36.8441L12.7774 37.0556ZM14.4037 40.5403L13.9506 40.7518C14.0003 40.8582 14.0858 40.9438 14.1923 40.9934L14.4037 40.5403ZM17.8885 42.1667L18.0999 42.6198C18.276 42.5376 18.3885 42.3609 18.3885 42.1667C18.3885 41.9724 18.276 41.7957 18.0999 41.7136L17.8885 42.1667ZM14.4037 43.793L14.1923 43.3399C14.0858 43.3896 14.0003 43.4752 13.9506 43.5816L14.4037 43.793ZM12.7774 47.2778L12.3243 47.4893C12.4064 47.6653 12.5831 47.7778 12.7774 47.7778C12.9716 47.7778 13.1483 47.6653 13.2305 47.4893L12.7774 47.2778ZM11.151 43.793L11.6041 43.5816C11.5544 43.4752 11.4689 43.3896 11.3625 43.3399L11.151 43.793ZM7.66626 42.1667L7.4548 41.7136C7.27877 41.7957 7.16626 41.9724 7.16626 42.1667C7.16626 42.3609 7.27877 42.5376 7.4548 42.6198L7.66626 42.1667ZM11.151 40.5403L11.3625 40.9934C11.4689 40.9438 11.5544 40.8582 11.6041 40.7518L11.151 40.5403ZM26.8329 23.5H66.444V22.5H26.8329V23.5ZM66.444 71.0556H26.8329V72.0556H66.444V71.0556ZM27.3329 71.5556V23H26.3329V71.5556H27.3329ZM65.944 23V29.3889H66.944V23H65.944ZM65.944 33.8611V35.7778H66.944V33.8611H65.944ZM65.944 40.25V71.5556H66.944V40.25H65.944ZM79.9996 11.5L79.9996 83.0556H80.9996L80.9996 11.5L79.9996 11.5ZM77.944 85.1111L40.8885 85.1111L40.8885 86.1111L77.944 86.1111V85.1111ZM35.7774 85.1111H15.3329V86.1111H35.7774V85.1111ZM13.2774 83.0556V51.75H12.2774V83.0556H13.2774ZM13.2774 32.5833L13.2774 11.5L12.2774 11.5L12.2774 32.5833H13.2774ZM80.9996 11.5C80.9996 9.81248 79.6316 8.44446 77.944 8.44446V9.44446C79.0793 9.44446 79.9996 10.3648 79.9996 11.5H80.9996ZM13.2774 11.5C13.2774 10.3648 14.1977 9.44446 15.3329 9.44446V8.44446C13.6454 8.44446 12.2774 9.81248 12.2774 11.5L13.2774 11.5ZM15.3329 85.1111C14.1977 85.1111 13.2774 84.1908 13.2774 83.0556H12.2774C12.2774 84.7431 13.6454 86.1111 15.3329 86.1111V85.1111ZM79.9996 83.0556C79.9996 84.1908 79.0793 85.1111 77.944 85.1111V86.1111C79.6316 86.1111 80.9996 84.7431 80.9996 83.0556H79.9996ZM71.0551 19.1667V75.3889H72.0551V19.1667H71.0551ZM70.2774 76.1667H22.9996V77.1667H70.2774V76.1667ZM22.2218 75.3889V19.1667H21.2218V75.3889H22.2218ZM57.4996 18.3889H70.2774V17.3889H57.4996V18.3889ZM22.9996 18.3889H53.0274V17.3889H22.9996V18.3889ZM22.9996 76.1667C22.57 76.1667 22.2218 75.8185 22.2218 75.3889H21.2218C21.2218 76.3707 22.0178 77.1667 22.9996 77.1667V76.1667ZM71.0551 75.3889C71.0551 75.8185 70.7069 76.1667 70.2774 76.1667V77.1667C71.2592 77.1667 72.0551 76.3707 72.0551 75.3889H71.0551ZM72.0551 19.1667C72.0551 18.1848 71.2592 17.3889 70.2774 17.3889V18.3889C70.7069 18.3889 71.0551 18.7371 71.0551 19.1667H72.0551ZM22.2218 19.1667C22.2218 18.7371 22.57 18.3889 22.9996 18.3889V17.3889C22.0178 17.3889 21.2218 18.1848 21.2218 19.1667H22.2218ZM22.0754 17.5354L14.4087 9.86869L13.7016 10.5758L21.3683 18.2425L22.0754 17.5354ZM71.9087 18.2425L79.5754 10.5758L78.8683 9.86869L71.2016 17.5354L71.9087 18.2425ZM21.3683 76.3131L13.7016 83.9798L14.4087 84.6869L22.0754 77.0202L21.3683 76.3131ZM71.2016 77.0202L78.8683 84.6869L79.5754 83.9798L71.9087 76.3131L71.2016 77.0202ZM15.3329 9.44446L77.944 9.44446V8.44446L15.3329 8.44446V9.44446ZM51.8885 42.1667C51.8885 46.9055 48.6103 50.6111 44.7218 50.6111V51.6111C49.3017 51.6111 52.8885 47.3076 52.8885 42.1667H51.8885ZM44.7218 50.6111C40.8333 50.6111 37.5551 46.9055 37.5551 42.1667H36.5551C36.5551 47.3076 40.142 51.6111 44.7218 51.6111V50.6111ZM37.5551 42.1667C37.5551 37.4279 40.8333 33.7222 44.7218 33.7222V32.7222C40.142 32.7222 36.5551 37.0257 36.5551 42.1667H37.5551ZM44.7218 33.7222C48.6103 33.7222 51.8885 37.4279 51.8885 42.1667H52.8885C52.8885 37.0257 49.3017 32.7222 44.7218 32.7222V33.7222ZM42.1663 33.5118C42.4147 33.9457 42.4145 33.9458 42.4144 33.9459C42.4144 33.9459 42.4143 33.9459 42.4142 33.9459C42.4142 33.9459 42.4143 33.9459 42.4145 33.9458C42.4149 33.9456 42.4157 33.9451 42.4169 33.9444C42.4194 33.943 42.4236 33.9406 42.4296 33.9374C42.4414 33.9308 42.4601 33.9206 42.4853 33.9071C42.5358 33.8802 42.6123 33.8403 42.713 33.7907C42.9144 33.6915 43.2118 33.5538 43.5885 33.4035C44.3431 33.1025 45.4101 32.7536 46.6591 32.5611C49.1534 32.1767 52.3467 32.4169 55.26 34.8819L55.9059 34.1185C52.708 31.4127 49.193 31.1587 46.5067 31.5728C45.1655 31.7795 44.0242 32.153 43.218 32.4746C42.8143 32.6357 42.4932 32.7843 42.2712 32.8936C42.1602 32.9483 42.0738 32.9932 42.0143 33.025C41.9845 33.0409 41.9614 33.0535 41.9452 33.0625C41.9372 33.067 41.9308 33.0705 41.9262 33.0731C41.9239 33.0744 41.9221 33.0754 41.9207 33.0762C41.92 33.0766 41.9194 33.0769 41.9189 33.0772C41.9187 33.0773 41.9184 33.0775 41.9183 33.0776C41.9181 33.0777 41.9178 33.0778 42.1663 33.5118ZM55.26 34.8819C57.2281 36.5473 58.5485 39.1534 59.4042 42.1925C60.2579 45.2248 60.6344 48.6357 60.7534 51.8485C60.8723 55.0585 60.7336 58.0534 60.5649 60.247C60.4805 61.3432 60.3888 62.2381 60.3183 62.858C60.283 63.1679 60.2531 63.4091 60.232 63.5722C60.2215 63.6538 60.2132 63.7158 60.2075 63.7572C60.2047 63.778 60.2025 63.7935 60.2011 63.8037C60.2004 63.8088 60.1999 63.8126 60.1995 63.8151C60.1994 63.8163 60.1992 63.8172 60.1991 63.8177C60.1991 63.818 60.1991 63.8182 60.1991 63.8183C60.1991 63.8184 60.1991 63.8184 60.694 63.8891C61.189 63.9598 61.189 63.9596 61.1891 63.9593C61.1891 63.9591 61.1892 63.9588 61.1892 63.9584C61.1893 63.9576 61.1895 63.9564 61.1897 63.9549C61.1901 63.9519 61.1907 63.9476 61.1915 63.9419C61.1931 63.9306 61.1954 63.914 61.1984 63.8922C61.2043 63.8485 61.2129 63.7842 61.2238 63.7003C61.2454 63.5324 61.276 63.2863 61.3119 62.971C61.3836 62.3406 61.4765 61.4336 61.5619 60.3237C61.7326 58.1049 61.8734 55.0703 61.7527 51.8115C61.6321 48.5556 61.2499 45.0584 60.3667 41.9215C59.4854 38.7914 58.0905 35.967 55.9059 34.1185L55.26 34.8819ZM61.017 63.5074L57.2355 60.3077L56.5896 61.0711L60.3711 64.2708L61.017 63.5074ZM52.8885 50.935V42.8057H51.8885V50.935H52.8885ZM52.3885 42.8057C52.8817 42.8878 52.8817 42.8876 52.8818 42.8874C52.8818 42.8873 52.8818 42.887 52.8819 42.8868C52.8819 42.8864 52.882 42.8859 52.8821 42.8853C52.8823 42.8841 52.8826 42.8825 52.8829 42.8806C52.8835 42.8768 52.8843 42.8717 52.8853 42.8651C52.8873 42.8521 52.8901 42.8336 52.8934 42.81C52.9 42.7628 52.9088 42.6951 52.9184 42.609C52.9376 42.4369 52.9598 42.1909 52.9728 41.8888C52.9987 41.2858 52.9884 40.4524 52.8421 39.5327C52.5503 37.6995 51.7048 35.4584 49.4561 34.0743L48.932 34.926C50.8354 36.0975 51.587 38.0091 51.8545 39.6898C51.9877 40.527 51.9976 41.2909 51.9737 41.8458C51.9618 42.1227 51.9416 42.3459 51.9246 42.4983C51.9161 42.5744 51.9085 42.6327 51.9031 42.671C51.9004 42.6901 51.8983 42.7043 51.8969 42.7131C51.8962 42.7175 51.8957 42.7207 51.8955 42.7224C51.8953 42.7233 51.8952 42.7238 51.8952 42.724C51.8952 42.7241 51.8952 42.7241 51.8952 42.724C51.8952 42.724 51.8952 42.7239 51.8952 42.7239C51.8952 42.7237 51.8953 42.7236 52.3885 42.8057ZM49.4561 34.0743C47.2912 32.7418 45.4323 32.4703 44.0939 32.5485C43.428 32.5874 42.8973 32.7125 42.5281 32.8306C42.3435 32.8896 42.199 32.947 42.0979 32.9912C42.0473 33.0132 42.0076 33.032 41.979 33.0461C41.9646 33.0531 41.9531 33.059 41.9445 33.0635C41.9401 33.0657 41.9365 33.0676 41.9336 33.0692C41.9321 33.07 41.9308 33.0706 41.9298 33.0712C41.9292 33.0715 41.9287 33.0718 41.9282 33.072C41.928 33.0722 41.9277 33.0723 41.9276 33.0724C41.9273 33.0726 41.927 33.0727 42.1663 33.5118C42.4055 33.9508 42.4053 33.9509 42.405 33.9511C42.4049 33.9511 42.4047 33.9513 42.4045 33.9513C42.4043 33.9515 42.404 33.9516 42.4038 33.9517C42.4034 33.9519 42.4032 33.9521 42.4031 33.9521C42.403 33.9521 42.4036 33.9519 42.4048 33.9512C42.4073 33.9499 42.4124 33.9473 42.4202 33.9435C42.4357 33.9358 42.4618 33.9234 42.4979 33.9077C42.5703 33.8761 42.6829 33.831 42.8328 33.783C43.1325 33.6872 43.5803 33.5802 44.1523 33.5468C45.2898 33.4803 46.9448 33.7029 48.932 34.926L49.4561 34.0743ZM57.2355 60.3077C54.4785 57.9748 52.8885 54.5465 52.8885 50.935H51.8885C51.8885 54.8406 53.6081 58.5482 56.5896 61.0711L57.2355 60.3077ZM36.2772 60.0399C35.9586 49.8452 36.7567 43.9875 37.6188 40.6961C38.0494 39.0519 38.4941 38.0554 38.8183 37.481C38.9802 37.1941 39.1118 37.0131 39.1962 36.9095C39.2384 36.8576 39.2688 36.825 39.2854 36.8081C39.2937 36.7997 39.2986 36.7952 39.2997 36.7941C39.3003 36.7936 39.3 36.7939 39.2987 36.795C39.298 36.7956 39.2972 36.7964 39.296 36.7973C39.2955 36.7978 39.2948 36.7983 39.2942 36.7989C39.2938 36.7992 39.2932 36.7997 39.2931 36.7998C39.2925 36.8003 39.2919 36.8008 38.9718 36.4167C38.6517 36.0326 38.6511 36.0331 38.6505 36.0336C38.6502 36.0338 38.6496 36.0344 38.6491 36.0347C38.6482 36.0355 38.6472 36.0364 38.6462 36.0372C38.6441 36.039 38.6419 36.041 38.6394 36.0431C38.6344 36.0475 38.6286 36.0527 38.6219 36.0588C38.6086 36.0711 38.592 36.087 38.5724 36.107C38.5332 36.1468 38.4819 36.2029 38.4205 36.2783C38.2978 36.4292 38.1349 36.6574 37.9474 36.9895C37.5729 37.653 37.0992 38.7328 36.6514 40.4428C35.7565 43.8597 34.9574 49.8214 35.2777 60.0711L36.2772 60.0399ZM43.4439 51.1111C42.9846 51.3086 42.9845 51.3085 42.9845 51.3085L42.9845 51.3084C42.9845 51.3084 42.9845 51.3085 42.9846 51.3086C42.9847 51.3088 42.9848 51.3092 42.9851 51.3098C42.9856 51.3109 42.9864 51.3129 42.9876 51.3156C42.9899 51.321 42.9934 51.3295 42.9981 51.3408C43.0076 51.3635 43.0216 51.3975 43.0394 51.4417C43.075 51.53 43.1254 51.6586 43.1838 51.8169C43.3008 52.1345 43.448 52.5673 43.5711 53.0328C43.6951 53.5015 43.7901 53.9861 43.8111 54.4117C43.8331 54.8542 43.7703 55.1487 43.6652 55.3084L44.5005 55.8583C44.7835 55.4282 44.835 54.8688 44.8099 54.3622C44.784 53.8387 44.6707 53.279 44.5379 52.7771C44.4043 52.272 44.2462 51.8078 44.1221 51.4712C44.0599 51.3023 44.0058 51.1645 43.967 51.0682C43.9476 51.02 43.932 50.9821 43.9211 50.956C43.9157 50.9429 43.9114 50.9327 43.9084 50.9256C43.9069 50.922 43.9057 50.9193 43.9048 50.9173C43.9044 50.9163 43.9041 50.9155 43.9038 50.9149C43.9037 50.9146 43.9036 50.9143 43.9035 50.9141C43.9034 50.914 43.9034 50.9139 43.9034 50.9139C43.9033 50.9138 43.9033 50.9137 43.4439 51.1111ZM43.6652 55.3084C43.5915 55.4204 43.3976 55.616 43.0463 55.897C42.7089 56.167 42.2675 56.4841 41.7447 56.8403C40.6988 57.553 39.3604 58.3998 37.9391 59.3088C35.1238 61.1093 31.9572 63.1686 30.3127 64.8131L31.0198 65.5202C32.5697 63.9703 35.6262 61.9751 38.4779 60.1512C39.8902 59.248 41.2463 58.39 42.3078 57.6667C42.8388 57.305 43.3044 56.9713 43.6711 56.6778C44.024 56.3954 44.3315 56.1149 44.5005 55.8583L43.6652 55.3084ZM30.3127 64.8131C28.3419 66.784 27.5202 68.1638 27.1937 69.2438C27.0295 69.7872 26.9965 70.236 26.9927 70.6151C26.9887 71.0238 27.0112 71.2414 26.9767 71.4857L27.9669 71.6254C28.0133 71.2964 27.9898 70.9144 27.9927 70.625C27.9958 70.3058 28.0226 69.9577 28.151 69.5331C28.4098 68.6768 29.1044 67.4356 31.0198 65.5202L30.3127 64.8131ZM27.4718 72.0556H63.2496V71.0556H27.4718V72.0556ZM63.7146 71.3719C63.3861 70.5401 62.3965 68.1965 61.0945 65.8573C60.4436 64.6878 59.7087 63.5085 58.9329 62.5166C58.1646 61.5342 57.3229 60.6916 56.4477 60.2484L55.9959 61.1405C56.6735 61.4836 57.4057 62.1871 58.1452 63.1326C58.8772 64.0686 59.5838 65.1991 60.2208 66.3436C61.4946 68.6323 62.4661 70.9329 62.7845 71.7392L63.7146 71.3719ZM56.4477 60.2484C55.4326 59.7344 54.5223 59.4638 53.6488 59.4061C52.7728 59.3483 51.9641 59.5066 51.157 59.8084C50.3572 60.1075 49.5511 60.5508 48.6825 61.0661C47.8004 61.5894 46.8676 62.1781 45.7515 62.8159L46.2477 63.6841C47.3677 63.0441 48.3454 62.4288 49.1927 61.9262C50.0535 61.4155 50.7957 61.0111 51.5072 60.745C52.2114 60.4817 52.8771 60.3574 53.5829 60.404C54.2912 60.4507 55.0701 60.6717 55.9959 61.1405L56.4477 60.2484ZM45.7515 62.8159C43.6964 63.9902 40.1642 65.1908 37.0245 65.7287C35.4541 65.9977 34.0207 66.094 32.9395 65.9555C31.8166 65.8117 31.2854 65.4487 31.1412 65.0104L30.1913 65.323C30.5323 66.3591 31.6311 66.7961 32.8125 66.9474C34.0357 67.1041 35.5809 66.9906 37.1933 66.7143C40.419 66.1617 44.0682 64.9295 46.2477 63.6841L45.7515 62.8159ZM12.3243 37.267L13.9506 40.7518L14.8568 40.3289L13.2305 36.8441L12.3243 37.267ZM14.1923 40.9934L17.677 42.6198L18.0999 41.7136L14.6152 40.0872L14.1923 40.9934ZM17.677 41.7136L14.1923 43.3399L14.6152 44.2461L18.0999 42.6198L17.677 41.7136ZM13.9506 43.5816L12.3243 47.0663L13.2305 47.4893L14.8568 44.0045L13.9506 43.5816ZM13.2305 47.0663L11.6041 43.5816L10.6979 44.0045L12.3243 47.4893L13.2305 47.0663ZM11.3625 43.3399L7.87772 41.7136L7.4548 42.6198L10.9396 44.2461L11.3625 43.3399ZM7.87772 42.6198L11.3625 40.9934L10.9396 40.0872L7.4548 41.7136L7.87772 42.6198ZM11.6041 40.7518L13.2305 37.267L12.3243 36.8441L10.6979 40.3289L11.6041 40.7518Z" fill="#bb9c66"/>
</svg>
