<svg width="92" height="92" viewBox="0 0 92 92" fill="none" xmlns="http://www.w3.org/2000/svg">
<path d="M74.2846 5.13251L74.7376 4.9207C74.6553 4.74486 74.4788 4.63251 74.2846 4.63251C74.0905 4.63251 73.914 4.74486 73.8317 4.9207L74.2846 5.13251ZM75.8389 8.45607L75.386 8.66788C75.4357 8.77426 75.5213 8.85974 75.6278 8.90932L75.8389 8.45607ZM79.1692 10.0072L79.3803 10.4604C79.5565 10.3784 79.6692 10.2016 79.6692 10.0072C79.6692 9.81279 79.5565 9.63601 79.3803 9.55394L79.1692 10.0072ZM75.8389 11.5583L75.6278 11.105C75.5213 11.1546 75.4357 11.2401 75.386 11.3465L75.8389 11.5583ZM74.2846 14.8819L73.8317 15.0937C73.914 15.2695 74.0905 15.3819 74.2846 15.3819C74.4788 15.3819 74.6553 15.2695 74.7376 15.0937L74.2846 14.8819ZM72.7304 11.5583L73.1833 11.3465C73.1336 11.2401 73.0479 11.1546 72.9415 11.105L72.7304 11.5583ZM69.4001 10.0072L69.189 9.55394C69.0128 9.63601 68.9001 9.81279 68.9001 10.0072C68.9001 10.2016 69.0128 10.3784 69.189 10.4604L69.4001 10.0072ZM72.7304 8.45607L72.9415 8.90932C73.0479 8.85974 73.1336 8.77426 73.1833 8.66788L72.7304 8.45607ZM53.1069 6.32075L53.5364 6.06461V6.06461L53.1069 6.32075ZM56.4332 11.897L56.0038 12.1531V12.1531L56.4332 11.897ZM56.4179 14.4185L55.9916 14.1572L56.4179 14.4185ZM53.1111 19.8123L53.5374 20.0736L53.1111 19.8123ZM34.6024 19.8518L35.0236 19.5823L34.6024 19.8518ZM31.1515 14.4575L30.7303 14.727L31.1515 14.4575ZM31.1354 11.8571L31.5599 12.1213L31.1354 11.8571ZM34.606 6.28141L35.0304 6.54563L34.606 6.28141ZM65.1326 51.1847L65.6155 51.0551L65.1326 51.1847ZM55.4187 75.9806L55.6601 76.4185C55.6685 76.4138 55.6768 76.409 55.6849 76.4038L55.4187 75.9806ZM51.8046 78.3565C52.062 78.2563 52.1894 77.9665 52.0892 77.7092C51.989 77.4519 51.6992 77.3245 51.4418 77.4247L51.8046 78.3565ZM50.2887 77.8372C50.0262 77.923 49.883 78.2054 49.9688 78.4678C50.0546 78.7303 50.3369 78.8735 50.5994 78.7877L50.2887 77.8372ZM37.6058 35.3104L37.4766 34.8273L37.6058 35.3104ZM55.5948 38.1257L55.3243 38.5463L55.5948 38.1257ZM21.2372 62.9232C21.3088 63.1898 21.5831 63.348 21.8498 63.2764C22.1165 63.2048 22.2746 62.9305 22.203 62.6638L21.2372 62.9232ZM21.3306 61.0823L21.8221 60.9902V60.9902L21.3306 61.0823ZM47.0855 79.6417C47.3581 79.5975 47.5433 79.3408 47.4991 79.0682C47.455 78.7956 47.1982 78.6104 46.9256 78.6545L47.0855 79.6417ZM23.553 66.351C23.4353 66.1012 23.1373 65.9941 22.8875 66.1118C22.6377 66.2295 22.5307 66.5275 22.6484 66.7773L23.553 66.351ZM54.6144 75.8531C54.3725 75.9864 54.2846 76.2905 54.4179 76.5323C54.5512 76.7742 54.8553 76.8621 55.0972 76.7288L54.6144 75.8531ZM35.5117 85.2523L35.3823 85.7353L35.5117 85.2523ZM13.6948 58.0149L13.1949 58.0057C13.1947 58.0153 13.1948 58.025 13.1952 58.0346L13.6948 58.0149ZM14.2258 56.3437C14.2309 56.0676 14.0112 55.8396 13.7351 55.8345C13.459 55.8294 13.2311 56.0491 13.226 56.3252L14.2258 56.3437ZM13.5126 52.3937C13.4709 52.6667 13.6584 52.9218 13.9314 52.9634C14.2044 53.0051 14.4595 52.8176 14.5011 52.5446L13.5126 52.3937ZM14.788 50.9613C14.8447 50.691 14.6716 50.426 14.4014 50.3692C14.1311 50.3125 13.8661 50.4856 13.8093 50.7558L14.788 50.9613ZM71.5451 64.5089L71.0621 64.3795L71.5451 64.5089ZM56.5838 83.0175L56.3556 82.5726L56.5838 83.0175ZM14.6679 47.5515C14.5819 47.8139 14.725 48.0963 14.9874 48.1823C15.2498 48.2683 15.5322 48.1253 15.6182 47.8629L14.6679 47.5515ZM34.5191 29.3099C34.7828 29.2281 34.9304 28.948 34.8486 28.6842C34.7668 28.4205 34.4867 28.273 34.2229 28.3547L34.5191 29.3099ZM52.5041 28.5417C52.2419 28.4552 51.9591 28.5976 51.8726 28.8598C51.7861 29.1221 51.9285 29.4048 52.1907 29.4914L52.5041 28.5417ZM34.374 28.8959C34.5183 29.1313 34.8261 29.2054 35.0616 29.0611C35.2971 28.9169 35.3711 28.6091 35.2269 28.3736L34.374 28.8959ZM32.594 25.0314L32.1676 25.2925L32.594 25.0314ZM54.917 25.0314L55.3434 25.2925V25.2925L54.917 25.0314ZM52.2841 28.3736C52.1399 28.6091 52.2139 28.9169 52.4494 29.0611C52.6849 29.2054 52.9927 29.1313 53.1369 28.8959L52.2841 28.3736ZM42.4083 27.8826C42.1848 27.7204 41.8721 27.77 41.7099 27.9935C41.5477 28.217 41.5974 28.5297 41.8209 28.6919L42.4083 27.8826ZM45.6519 28.6613C45.8584 28.478 45.8773 28.162 45.6941 27.9554C45.5108 27.7488 45.1948 27.7299 44.9883 27.9132L45.6519 28.6613ZM38.8709 27.7872C38.5948 27.7872 38.3709 28.0111 38.3709 28.2872C38.3709 28.5634 38.5948 28.7872 38.8709 28.7872V27.7872ZM39.0613 28.7872C39.3375 28.7872 39.5613 28.5634 39.5613 28.2872C39.5613 28.0111 39.3375 27.7872 39.0613 27.7872V28.7872ZM48.64 27.7872C48.3639 27.7872 48.14 28.0111 48.14 28.2872C48.14 28.5634 48.3639 28.7872 48.64 28.7872V27.7872ZM48.8304 28.7872C49.1066 28.7872 49.3304 28.5634 49.3304 28.2872C49.3304 28.0111 49.1066 27.7872 48.8304 27.7872V28.7872ZM31.5441 12.6624C31.2679 12.6624 31.0441 12.8862 31.0441 13.1624C31.0441 13.4385 31.2679 13.6624 31.5441 13.6624V12.6624ZM41.4851 21.2152C41.6177 21.4574 41.9215 21.5464 42.1637 21.4139C42.406 21.2813 42.495 20.9775 42.3624 20.7352L41.4851 21.2152ZM55.9669 13.6624C56.2431 13.6624 56.4669 13.4385 56.4669 13.1624C56.4669 12.8862 56.2431 12.6624 55.9669 12.6624V13.6624ZM47.8973 4.98701C47.8169 4.72282 47.5376 4.57379 47.2734 4.65414C47.0092 4.7345 46.8602 5.01381 46.9406 5.278L47.8973 4.98701ZM45.1486 20.7352C45.016 20.9775 45.105 21.2813 45.3472 21.4139C45.5895 21.5464 45.8933 21.4574 46.0259 21.2152L45.1486 20.7352ZM40.5704 5.278C40.6508 5.01381 40.5017 4.7345 40.2376 4.65414C39.9734 4.57379 39.6941 4.72282 39.6137 4.98701L40.5704 5.278ZM67.5677 14.8819L68.0206 14.6701C67.9384 14.4942 67.7618 14.3819 67.5677 14.3819C67.3736 14.3819 67.197 14.4942 67.1148 14.6701L67.5677 14.8819ZM69.7048 19.4518L69.2519 19.6636C69.3017 19.77 69.3873 19.8554 69.4937 19.905L69.7048 19.4518ZM74.284 21.5846L74.4951 22.0378C74.6713 21.9557 74.784 21.7789 74.784 21.5846C74.784 21.3902 74.6713 21.2134 74.4951 21.1313L74.284 21.5846ZM69.7048 23.7173L69.4937 23.2641C69.3873 23.3137 69.3017 23.3991 69.2519 23.5055L69.7048 23.7173ZM67.5677 28.2872L67.1148 28.499C67.197 28.6749 67.3736 28.7872 67.5677 28.7872C67.7618 28.7872 67.9384 28.6749 68.0206 28.499L67.5677 28.2872ZM65.4306 23.7173L65.8835 23.5055C65.8338 23.3991 65.7482 23.3137 65.6417 23.2641L65.4306 23.7173ZM60.8514 21.5846L60.6403 21.1313C60.4641 21.2134 60.3514 21.3902 60.3514 21.5846C60.3514 21.7789 60.4641 21.9557 60.6403 22.0378L60.8514 21.5846ZM65.4306 19.4518L65.6417 19.905C65.7482 19.8554 65.8338 19.77 65.8835 19.6636L65.4306 19.4518ZM73.8317 5.34432L75.386 8.66788L76.2918 8.24426L74.7376 4.9207L73.8317 5.34432ZM75.6278 8.90932L78.9581 10.4604L79.3803 9.55394L76.05 8.00282L75.6278 8.90932ZM78.9581 9.55394L75.6278 11.105L76.05 12.0115L79.3803 10.4604L78.9581 9.55394ZM75.386 11.3465L73.8317 14.6701L74.7376 15.0937L76.2918 11.7701L75.386 11.3465ZM74.7376 14.6701L73.1833 11.3465L72.2775 11.7701L73.8317 15.0937L74.7376 14.6701ZM72.9415 11.105L69.6112 9.55394L69.189 10.4604L72.5193 12.0115L72.9415 11.105ZM69.6112 10.4604L72.9415 8.90932L72.5193 8.00282L69.189 9.55394L69.6112 10.4604ZM73.1833 8.66788L74.7376 5.34432L73.8317 4.9207L72.2775 8.24426L73.1833 8.66788ZM36.6744 5.63251H51.0145V4.63251H36.6744V5.63251ZM52.6775 6.5769L56.0038 12.1531L56.8626 11.6408L53.5364 6.06461L52.6775 6.5769ZM55.9916 14.1572L52.6849 19.5509L53.5374 20.0736L56.8442 14.6799L55.9916 14.1572ZM51.034 20.4752H36.6547V21.4752H51.034V20.4752ZM35.0236 19.5823L31.5727 14.1881L30.7303 14.727L34.1812 20.1212L35.0236 19.5823ZM31.5599 12.1213L35.0304 6.54563L34.1815 6.01719L30.7109 11.5929L31.5599 12.1213ZM31.5727 14.1881C31.1704 13.5592 31.1654 12.7551 31.5599 12.1213L30.7109 11.5929C30.1127 12.554 30.1202 13.7733 30.7303 14.727L31.5727 14.1881ZM36.6547 20.4752C35.9943 20.4752 35.3795 20.1386 35.0236 19.5823L34.1812 20.1212C34.7209 20.9648 35.6533 21.4752 36.6547 21.4752V20.4752ZM52.6849 19.5509C52.3328 20.1252 51.7076 20.4752 51.034 20.4752V21.4752C52.0555 21.4752 53.0035 20.9444 53.5374 20.0736L52.6849 19.5509ZM56.0038 12.1531C56.3727 12.7714 56.368 13.5434 55.9916 14.1572L56.8442 14.6799C57.4148 13.7491 57.4219 12.5785 56.8626 11.6408L56.0038 12.1531ZM51.0145 5.63251C51.6965 5.63251 52.3282 5.99123 52.6775 6.5769L53.5364 6.06461C53.0066 5.17648 52.0487 4.63251 51.0145 4.63251V5.63251ZM36.6744 4.63251C35.66 4.63251 34.7175 5.15603 34.1815 6.01719L35.0304 6.54563C35.3839 5.97774 36.0055 5.63251 36.6744 5.63251V4.63251ZM64.6497 51.3144C67.2053 60.8328 63.0851 70.5672 55.1525 75.5574L55.6849 76.4038C63.9781 71.1869 68.2882 61.0095 65.6155 51.0551L64.6497 51.3144ZM51.4418 77.4247C51.0634 77.572 50.679 77.7096 50.2887 77.8372L50.5994 78.7877C51.0072 78.6544 51.4091 78.5106 51.8046 78.3565L51.4418 77.4247ZM37.7349 35.7934C43.968 34.1266 50.2933 35.3107 55.3243 38.5463L55.8652 37.7052C50.6072 34.3237 43.993 33.0848 37.4766 34.8273L37.7349 35.7934ZM55.3243 38.5463C59.7541 41.3951 63.178 45.8329 64.6497 51.3144L65.6155 51.0551C64.0768 45.3241 60.4956 40.6831 55.8652 37.7052L55.3243 38.5463ZM22.203 62.6638C22.0533 62.1063 21.9265 61.5481 21.8221 60.9902L20.8392 61.1743C20.9484 61.7574 21.0808 62.3407 21.2372 62.9232L22.203 62.6638ZM21.8221 60.9902C19.733 49.833 26.5717 38.7785 37.7349 35.7934L37.4766 34.8273C25.8053 37.9483 18.6545 49.5064 20.8392 61.1743L21.8221 60.9902ZM46.9256 78.6545C37.2213 80.2261 27.6845 75.1181 23.553 66.351L22.6484 66.7773C26.9687 75.9451 36.9382 81.285 47.0855 79.6417L46.9256 78.6545ZM55.0972 76.7288L55.6601 76.4185L55.1773 75.5427L54.6144 75.8531L55.0972 76.7288ZM35.6412 84.7694C23.0877 81.4057 14.6788 70.3051 14.1944 57.9953L13.1952 58.0346C13.6964 70.7711 22.3952 82.2554 35.3823 85.7353L35.6412 84.7694ZM13.226 56.3252L13.1949 58.0057L14.1947 58.0242L14.2258 56.3437L13.226 56.3252ZM14.5011 52.5446C14.5816 52.0172 14.6771 51.4892 14.788 50.9613L13.8093 50.7558C13.6947 51.3019 13.5958 51.848 13.5126 52.3937L14.5011 52.5446ZM71.0621 64.3795C68.8684 72.5666 63.358 78.9814 56.3556 82.5726L56.812 83.4624C64.0547 79.7479 69.758 73.11 72.028 64.6383L71.0621 64.3795ZM56.3556 82.5726C50.19 85.7347 42.87 86.7063 35.6412 84.7694L35.3823 85.7353C42.8596 87.7388 50.434 86.7334 56.812 83.4624L56.3556 82.5726ZM15.6182 47.8629C18.6144 38.7188 25.8381 32.0015 34.5191 29.3099L34.2229 28.3547C25.245 31.1385 17.769 38.0873 14.6679 47.5515L15.6182 47.8629ZM52.1907 29.4914C66.6493 34.2631 75.0421 49.5261 71.0621 64.3795L72.028 64.6383C76.1466 49.2677 67.4612 33.478 52.5041 28.5417L52.1907 29.4914ZM35.2269 28.3736L33.0204 24.7703L32.1676 25.2925L34.374 28.8959L35.2269 28.3736ZM34.6717 21.4752H52.8392V20.4752H34.6717V21.4752ZM54.4906 24.7703L52.2841 28.3736L53.1369 28.8959L55.3434 25.2925L54.4906 24.7703ZM52.8392 21.4752C53.5586 21.4752 54.1754 21.9341 54.5176 22.6182C54.8609 23.3045 54.8816 24.1319 54.4906 24.7703L55.3434 25.2925C55.9466 24.3076 55.8802 23.1069 55.4119 22.1708C54.9427 21.2327 54.0235 20.4752 52.8392 20.4752V21.4752ZM33.0204 24.7703C32.6294 24.1319 32.6501 23.3045 32.9934 22.6182C33.3356 21.9341 33.9524 21.4752 34.6717 21.4752V20.4752C33.4875 20.4752 32.5683 21.2327 32.099 22.1708C31.6308 23.1069 31.5644 24.3076 32.1676 25.2925L33.0204 24.7703ZM42.1146 28.2872C41.8209 28.6919 41.8211 28.6921 41.8214 28.6923C41.8215 28.6923 41.8218 28.6925 41.822 28.6927C41.8224 28.693 41.8227 28.6932 41.8231 28.6935C41.8239 28.6941 41.8247 28.6947 41.8256 28.6953C41.8272 28.6964 41.829 28.6977 41.8309 28.699C41.8347 28.7016 41.839 28.7045 41.8437 28.7076C41.8531 28.7139 41.8643 28.721 41.8774 28.7289C41.9037 28.7447 41.9376 28.7635 41.9797 28.784C42.0639 28.8252 42.1807 28.8733 42.3353 28.919C42.6447 29.0105 43.1033 29.0919 43.7555 29.0919V28.0919C43.1865 28.0919 42.8246 28.0209 42.6189 27.9601C42.5159 27.9296 42.4514 27.9016 42.4188 27.8856C42.4025 27.8776 42.394 27.8726 42.3925 27.8717C42.3918 27.8713 42.3928 27.8719 42.3955 27.8737C42.3968 27.8745 42.3985 27.8757 42.4007 27.8772C42.4017 27.8779 42.4029 27.8787 42.4042 27.8796C42.4048 27.8801 42.4055 27.8806 42.4061 27.881C42.4065 27.8813 42.4068 27.8815 42.4072 27.8818C42.4074 27.8819 42.4076 27.8821 42.4077 27.8822C42.408 27.8824 42.4083 27.8826 42.1146 28.2872ZM43.7555 29.0919C44.4068 29.0919 44.8507 29.0107 45.1478 28.9159C45.2966 28.8683 45.4085 28.8174 45.4906 28.7716C45.5316 28.7488 45.565 28.7274 45.5917 28.7085C45.605 28.6991 45.6166 28.6903 45.6266 28.6824C45.6316 28.6784 45.6362 28.6747 45.6404 28.6711C45.6425 28.6694 45.6445 28.6677 45.6464 28.666C45.6474 28.6652 45.6483 28.6644 45.6492 28.6636C45.6497 28.6632 45.6501 28.6628 45.6506 28.6624C45.6508 28.6622 45.6511 28.6619 45.6512 28.6618C45.6515 28.6616 45.6519 28.6613 45.3201 28.2872C44.9883 27.9132 44.9886 27.9129 44.9889 27.9126C44.989 27.9125 44.9893 27.9122 44.9895 27.9121C44.9899 27.9117 44.9904 27.9113 44.9908 27.911C44.9916 27.9102 44.9924 27.9095 44.9932 27.9089C44.9948 27.9075 44.9963 27.9062 44.9977 27.9051C45.0005 27.9027 45.003 27.9006 45.0052 27.8989C45.0096 27.8954 45.0126 27.8932 45.0142 27.8921C45.0173 27.8899 45.0143 27.8923 45.004 27.898C44.9836 27.9094 44.9333 27.9346 44.8436 27.9633C44.6637 28.0207 44.3253 28.0919 43.7555 28.0919V29.0919ZM38.8709 28.7872H39.0613V27.7872H38.8709V28.7872ZM48.64 28.7872H48.8304V27.7872H48.64V28.7872ZM31.5441 13.6624H37.6498V12.6624H31.5441V13.6624ZM37.2111 13.4023L41.4851 21.2152L42.3624 20.7352L38.0884 12.9224L37.2111 13.4023ZM37.6498 13.6624H49.8612V12.6624H37.6498V13.6624ZM49.8612 13.6624H55.9669V12.6624H49.8612V13.6624ZM46.9406 5.278L49.3828 13.3079L50.3396 13.0169L47.8973 4.98701L46.9406 5.278ZM49.4225 12.9224L45.1486 20.7352L46.0259 21.2152L50.2999 13.4023L49.4225 12.9224ZM38.1281 13.3079L40.5704 5.278L39.6137 4.98701L37.1714 13.0169L38.1281 13.3079ZM67.1148 15.0937L69.2519 19.6636L70.1577 19.24L68.0206 14.6701L67.1148 15.0937ZM69.4937 19.905L74.0729 22.0378L74.4951 21.1313L69.9159 18.9985L69.4937 19.905ZM74.0729 21.1313L69.4937 23.2641L69.9159 24.1706L74.4951 22.0378L74.0729 21.1313ZM69.2519 23.5055L67.1148 28.0754L68.0206 28.499L70.1577 23.9291L69.2519 23.5055ZM68.0206 28.0754L65.8835 23.5055L64.9777 23.9291L67.1148 28.499L68.0206 28.0754ZM65.6417 23.2641L61.0625 21.1313L60.6403 22.0378L65.2195 24.1706L65.6417 23.2641ZM61.0625 22.0378L65.6417 19.905L65.2195 18.9985L60.6403 21.1313L61.0625 22.0378ZM65.8835 19.6636L68.0206 15.0937L67.1148 14.6701L64.9777 19.24L65.8835 19.6636Z" fill="#bb9c66"/>
</svg>
