<svg width="141" height="92" viewBox="0 0 141 92" fill="none" xmlns="http://www.w3.org/2000/svg">
<path d="M108.333 53.5114C108.333 53.2353 108.109 53.0114 107.833 53.0114C107.557 53.0114 107.333 53.2353 107.333 53.5114H108.333ZM107.333 77.6667C107.333 77.9428 107.557 78.1667 107.833 78.1667C108.109 78.1667 108.333 77.9428 108.333 77.6667H107.333ZM108.333 39.3333C108.333 39.0572 108.109 38.8333 107.833 38.8333C107.557 38.8333 107.333 39.0572 107.333 39.3333H108.333ZM107.333 48.7854C107.333 49.0615 107.557 49.2854 107.833 49.2854C108.109 49.2854 108.333 49.0615 108.333 48.7854H107.333ZM31.9444 77.6667C31.9444 77.9428 32.1683 78.1667 32.4444 78.1667C32.7206 78.1667 32.9444 77.9428 32.9444 77.6667H31.9444ZM32.9444 39.3333C32.9444 39.0572 32.7206 38.8333 32.4444 38.8333C32.1683 38.8333 31.9444 39.0572 31.9444 39.3333H32.9444ZM59.9166 23.5C59.6405 23.5 59.4166 23.7238 59.4166 24C59.4166 24.2761 59.6405 24.5 59.9166 24.5V23.5ZM31.8765 24.5C32.1527 24.5 32.3765 24.2761 32.3765 24C32.3765 23.7238 32.1527 23.5 31.8765 23.5V24.5ZM79.7222 85.3333V85.8333H80.2222V85.3333H79.7222ZM60.5555 85.3333H60.0555V85.8333H60.5555V85.3333ZM76.3889 63.6111C76.3889 63.335 76.165 63.1111 75.8889 63.1111C75.6127 63.1111 75.3889 63.335 75.3889 63.6111H76.3889ZM75.3889 67.4444C75.3889 67.7206 75.6127 67.9444 75.8889 67.9444C76.165 67.9444 76.3889 67.7206 76.3889 67.4444H75.3889ZM35 21.0185L34.6236 20.6894C34.4538 20.8836 34.4596 21.1751 34.637 21.3623L35 21.0185ZM40.2133 15.0555L40.2133 14.5555C40.0691 14.5555 39.9318 14.6178 39.8369 14.7264L40.2133 15.0555ZM52.3777 15.0555L52.7819 14.7611C52.6878 14.6319 52.5376 14.5555 52.3777 14.5555V15.0555ZM56.7222 21.0185L57.0986 21.3476C57.2524 21.1717 57.2639 20.9129 57.1263 20.7241L56.7222 21.0185ZM46.2955 32.9444L45.9325 33.2883C46.0293 33.3905 46.1647 33.4471 46.3055 33.4443C46.4462 33.4415 46.5793 33.3795 46.6719 33.2735L46.2955 32.9444ZM46.2955 15.0555V14.5555V15.0555ZM41.9511 21.0185L41.547 20.7241L41.3901 20.9394L41.4813 21.1896L41.9511 21.0185ZM50.64 21.0185L51.1098 21.1896L51.2009 20.9394L51.0441 20.7241L50.64 21.0185ZM107.333 53.5114V77.6667H108.333V53.5114H107.333ZM107.333 39.3333V48.7854H108.333V39.3333H107.333ZM32.9444 77.6667V67.4969H31.9444V77.6667H32.9444ZM32.9444 67.4969V39.3333H31.9444V67.4969H32.9444ZM31.8055 78.1667H59.9166V77.1667H31.8055V78.1667ZM60.0555 78.3055V84.6944H61.0555V78.3055H60.0555ZM59.9166 84.8333H31.8055V85.8333H59.9166V84.8333ZM31.6666 84.6944V78.3055H30.6666V84.6944H31.6666ZM31.8055 84.8333C31.7288 84.8333 31.6666 84.7711 31.6666 84.6944H30.6666C30.6666 85.3234 31.1765 85.8333 31.8055 85.8333V84.8333ZM60.0555 84.6944C60.0555 84.7711 59.9933 84.8333 59.9166 84.8333V85.8333C60.5456 85.8333 61.0555 85.3234 61.0555 84.6944H60.0555ZM59.9166 78.1667C59.9933 78.1667 60.0555 78.2288 60.0555 78.3055H61.0555C61.0555 77.6766 60.5456 77.1667 59.9166 77.1667V78.1667ZM31.8055 77.1667C31.1765 77.1667 30.6666 77.6766 30.6666 78.3055H31.6666C31.6666 78.2288 31.7288 78.1667 31.8055 78.1667V77.1667ZM80.3611 78.1667H108.472V77.1667H80.3611V78.1667ZM108.611 78.3055V84.6944H109.611V78.3055H108.611ZM108.472 84.8333H80.3611V85.8333H108.472V84.8333ZM80.2222 84.6944V78.3055H79.2222V84.6944H80.2222ZM80.3611 84.8333C80.2844 84.8333 80.2222 84.7711 80.2222 84.6944H79.2222C79.2222 85.3234 79.7321 85.8333 80.3611 85.8333V84.8333ZM108.611 84.6944C108.611 84.7711 108.549 84.8333 108.472 84.8333V85.8333C109.101 85.8333 109.611 85.3234 109.611 84.6944H108.611ZM108.472 78.1667C108.549 78.1667 108.611 78.2288 108.611 78.3055H109.611C109.611 77.6766 109.101 77.1667 108.472 77.1667V78.1667ZM80.3611 77.1667C79.7321 77.1667 79.2222 77.6766 79.2222 78.3055H80.2222C80.2222 78.2288 80.2844 78.1667 80.3611 78.1667V77.1667ZM109.889 25.2778V38.0555H110.889V25.2778H109.889ZM109.111 38.8333H29.8889V39.8333H109.111V38.8333ZM29.1111 38.0555V25.2778H28.1111V38.0555H29.1111ZM59.9166 24.5H109.111V23.5H59.9166V24.5ZM29.8889 24.5H31.8765V23.5H29.8889V24.5ZM29.8889 38.8333C29.4593 38.8333 29.1111 38.4851 29.1111 38.0555H28.1111C28.1111 39.0374 28.907 39.8333 29.8889 39.8333V38.8333ZM109.889 38.0555C109.889 38.4851 109.541 38.8333 109.111 38.8333V39.8333C110.093 39.8333 110.889 39.0374 110.889 38.0555H109.889ZM110.889 25.2778C110.889 24.2959 110.093 23.5 109.111 23.5V24.5C109.541 24.5 109.889 24.8482 109.889 25.2778H110.889ZM29.1111 25.2778C29.1111 24.8482 29.4593 24.5 29.8889 24.5V23.5C28.907 23.5 28.1111 24.2959 28.1111 25.2778H29.1111ZM38.8333 44.9444H54.1666V43.9444H38.8333V44.9444ZM54.9444 45.7222V66.1667H55.9444V45.7222H54.9444ZM54.1666 66.9444H38.8333V67.9444H54.1666V66.9444ZM38.0555 66.1667V45.7222H37.0555V66.1667H38.0555ZM38.8333 66.9444C38.4038 66.9444 38.0555 66.5962 38.0555 66.1667H37.0555C37.0555 67.1485 37.8515 67.9444 38.8333 67.9444V66.9444ZM54.9444 66.1667C54.9444 66.5962 54.5962 66.9444 54.1666 66.9444V67.9444C55.1485 67.9444 55.9444 67.1485 55.9444 66.1667H54.9444ZM54.1666 44.9444C54.5962 44.9444 54.9444 45.2927 54.9444 45.7222H55.9444C55.9444 44.7404 55.1485 43.9444 54.1666 43.9444V44.9444ZM38.8333 43.9444C37.8515 43.9444 37.0555 44.7404 37.0555 45.7222H38.0555C38.0555 45.2927 38.4038 44.9444 38.8333 44.9444V43.9444ZM61.8333 44.9444H78.4444V43.9444H61.8333V44.9444ZM79.2222 45.7222V85.3333H80.2222V45.7222H79.2222ZM79.7222 84.8333H60.5555V85.8333H79.7222V84.8333ZM61.0555 85.3333V45.7222H60.0555V85.3333H61.0555ZM78.4444 44.9444C78.874 44.9444 79.2222 45.2927 79.2222 45.7222H80.2222C80.2222 44.7404 79.4263 43.9444 78.4444 43.9444V44.9444ZM61.8333 43.9444C60.8515 43.9444 60.0555 44.7404 60.0555 45.7222H61.0555C61.0555 45.2927 61.4037 44.9444 61.8333 44.9444V43.9444ZM86.1111 44.9444H101.444V43.9444H86.1111V44.9444ZM102.222 45.7222V66.1667H103.222V45.7222H102.222ZM101.444 66.9444H86.1111V67.9444H101.444V66.9444ZM85.3333 66.1667V45.7222H84.3333V66.1667H85.3333ZM86.1111 66.9444C85.6815 66.9444 85.3333 66.5962 85.3333 66.1667H84.3333C84.3333 67.1485 85.1292 67.9444 86.1111 67.9444V66.9444ZM102.222 66.1667C102.222 66.5962 101.874 66.9444 101.444 66.9444V67.9444C102.426 67.9444 103.222 67.1485 103.222 66.1667H102.222ZM101.444 44.9444C101.874 44.9444 102.222 45.2927 102.222 45.7222H103.222C103.222 44.7404 102.426 43.9444 101.444 43.9444V44.9444ZM86.1111 43.9444C85.1292 43.9444 84.3333 44.7404 84.3333 45.7222H85.3333C85.3333 45.2927 85.6815 44.9444 86.1111 44.9444V43.9444ZM75.3889 63.6111V67.4444H76.3889V63.6111H75.3889ZM35.3764 21.3476L40.5897 15.3846L39.8369 14.7264L34.6236 20.6894L35.3764 21.3476ZM51.9736 15.35L56.3181 21.3129L57.1263 20.7241L52.7819 14.7611L51.9736 15.35ZM46.6585 32.6006L35.363 20.6747L34.637 21.3623L45.9325 33.2883L46.6585 32.6006ZM56.3458 20.6894L45.9191 32.6153L46.6719 33.2735L57.0986 21.3476L56.3458 20.6894ZM40.2133 15.5555L46.2955 15.5555V14.5555L40.2133 14.5555L40.2133 15.5555ZM46.2955 15.5555H52.3777V14.5555H46.2955V15.5555ZM52.0191 14.7071L48.5436 18.2849L49.2608 18.9817L52.7364 15.4039L52.0191 14.7071ZM39.8547 15.4039L43.3302 18.9817L44.0475 18.2849L40.5719 14.7072L39.8547 15.4039ZM45.8914 14.7611L41.547 20.7241L42.3552 21.3129L46.6996 15.35L45.8914 14.7611ZM41.4813 21.1896L45.8257 33.1156L46.7653 32.7733L42.4209 20.8474L41.4813 21.1896ZM46.7653 33.1156L51.1098 21.1896L50.1702 20.8474L45.8257 32.7733L46.7653 33.1156ZM51.0441 20.7241L46.6996 14.7611L45.8914 15.35L50.2359 21.3129L51.0441 20.7241ZM35 21.5185H56.7222V20.5185H35V21.5185Z" fill="#bb9c66"/>
<circle cx="128.5" cy="12" r="12" fill="#FF8856"/>
<path d="M126.933 14.9589H131.089V16.7499H124.567V16.0116C124.567 15.5103 124.652 15.0614 124.82 14.6649C124.989 14.2639 125.201 13.9061 125.456 13.5917C125.711 13.2727 125.989 12.9924 126.29 12.7509C126.595 12.5048 126.885 12.2837 127.158 12.0878C127.445 11.8827 127.696 11.6867 127.91 11.4999C128.129 11.313 128.311 11.1285 128.457 10.9462C128.607 10.7593 128.719 10.5725 128.792 10.3856C128.865 10.1942 128.901 9.99141 128.901 9.77722C128.901 9.35795 128.783 9.04122 128.546 8.82703C128.309 8.61283 127.947 8.50574 127.459 8.50574C126.616 8.50574 125.809 8.8407 125.039 9.51062V7.61023C125.891 7.0588 126.853 6.78308 127.924 6.78308C128.421 6.78308 128.865 6.84916 129.257 6.98132C129.653 7.10893 129.988 7.2935 130.262 7.53503C130.535 7.77657 130.743 8.07052 130.884 8.41687C131.03 8.75867 131.103 9.14148 131.103 9.56531C131.103 10.0165 131.032 10.4175 130.891 10.7684C130.754 11.1193 130.569 11.4384 130.337 11.7255C130.109 12.0126 129.845 12.2769 129.544 12.5184C129.243 12.7554 128.931 12.9856 128.607 13.2089C128.389 13.3638 128.177 13.5188 127.972 13.6737C127.771 13.8241 127.593 13.9745 127.438 14.1249C127.284 14.2707 127.16 14.4143 127.069 14.5555C126.978 14.6968 126.933 14.8313 126.933 14.9589Z" fill="white"/>
</svg>
