<svg width="141" height="92" viewBox="0 0 141 92" fill="none" xmlns="http://www.w3.org/2000/svg">
<path d="M39.5 45.519V45.019C39.2239 45.019 39 45.2428 39 45.519H39.5ZM100.5 45.519H101C101 45.2428 100.776 45.019 100.5 45.019V45.519ZM100.5 81.6676V82.1676C100.776 82.1676 101 81.9437 101 81.6676H100.5ZM39.5 81.6676H39C39 81.9437 39.2239 82.1676 39.5 82.1676V81.6676ZM39 53.8061C39 54.0823 39.2239 54.3061 39.5 54.3061C39.7761 54.3061 40 54.0823 40 53.8061H39ZM40 58.1766C40 57.9004 39.7761 57.6766 39.5 57.6766C39.2239 57.6766 39 57.9004 39 58.1766H40ZM101 79.4823C101 79.2062 100.776 78.9823 100.5 78.9823C100.224 78.9823 100 79.2062 100 79.4823H101ZM100.5 85V85.5C100.776 85.5 101 85.2761 101 85H100.5ZM39.5 85H39C39 85.2761 39.2239 85.5 39.5 85.5V85ZM40 81.3416C40 81.0655 39.7761 80.8416 39.5 80.8416C39.2239 80.8416 39 81.0655 39 81.3416H40ZM51.5118 38.5967L51.8211 38.9895L51.5118 38.5967ZM65.6429 32.954L66.0501 32.664C65.9243 32.4872 65.6988 32.4119 65.4919 32.4774L65.6429 32.954ZM74.9018 32.954L75.0593 32.4795C74.8509 32.4103 74.6218 32.4852 74.4945 32.664L74.9018 32.954ZM88.9068 38.5967L89.2161 38.2039L88.9068 38.5967ZM46.2944 45.3996C46.2285 45.6677 46.3923 45.9386 46.6605 46.0046C46.9286 46.0705 47.1995 45.9066 47.2655 45.6385L46.2944 45.3996ZM92.8152 45.6086C92.8647 45.8803 93.125 46.0604 93.3967 46.011C93.6684 45.9615 93.8485 45.7012 93.7991 45.4295L92.8152 45.6086ZM74.4244 45.6678C74.5066 45.9314 74.7869 46.0786 75.0505 45.9964C75.3142 45.9143 75.4613 45.634 75.3792 45.3703L74.4244 45.6678ZM64.6299 45.344C64.5332 45.6026 64.6645 45.8907 64.9231 45.9874C65.1818 46.0841 65.4699 45.9528 65.5666 45.6941L64.6299 45.344ZM58.0219 18.1695L58.5219 18.1796V18.1695H58.0219ZM82.163 15.8372C82.4205 15.7373 82.5482 15.4476 82.4483 15.1901C82.3484 14.9327 82.0587 14.805 81.8013 14.9049L82.163 15.8372ZM63.7284 12.7408L64.0477 12.3561C63.8529 12.1944 63.5679 12.2038 63.3842 12.3781L63.7284 12.7408ZM58.9764 14.8884C58.7098 14.9607 58.5523 15.2353 58.6246 15.5018C58.6968 15.7683 58.9714 15.9259 59.2379 15.8536L58.9764 14.8884ZM39.5 46.019H100.5V45.019H39.5V46.019ZM100 45.519V81.6676H101V45.519H100ZM100.5 81.1676H39.5V82.1676H100.5V81.1676ZM40 53.8061V45.519H39V53.8061H40ZM40 81.6676V58.1766H39V81.6676H40ZM100 79.4823V85H101V79.4823H100ZM100.5 84.5H39.5V85.5H100.5V84.5ZM40 85V81.3416H39V85H40ZM73.8571 63.0933C73.8571 65.2323 72.1288 66.9637 70 66.9637V67.9637C72.684 67.9637 74.8571 65.7817 74.8571 63.0933H73.8571ZM70 66.9637C67.8712 66.9637 66.1429 65.2323 66.1429 63.0933H65.1429C65.1429 65.7817 67.316 67.9637 70 67.9637V66.9637ZM66.1429 63.0933C66.1429 60.9543 67.8712 59.2229 70 59.2229V58.2229C67.316 58.2229 65.1429 60.4049 65.1429 63.0933H66.1429ZM70 59.2229C72.1288 59.2229 73.8571 60.9543 73.8571 63.0933H74.8571C74.8571 60.4049 72.684 58.2229 70 58.2229V59.2229ZM51.8211 38.9895C53.4261 37.7256 55.4687 36.7895 57.8517 35.9401C60.2426 35.0878 62.9095 34.3441 65.7938 33.4307L65.4919 32.4774C62.6563 33.3754 59.9263 34.1389 57.516 34.9981C55.0978 35.8601 52.9347 36.8397 51.2024 38.2039L51.8211 38.9895ZM74.7443 33.4286C76.6917 34.0748 79.3033 34.8099 81.9155 35.7355C84.5189 36.6581 86.9985 37.7304 88.5975 38.9895L89.2161 38.2039C87.4777 36.8349 84.861 35.7184 82.2495 34.793C79.6466 33.8706 76.9243 33.0984 75.0593 32.4795L74.7443 33.4286ZM47.2655 45.6385C47.5762 44.3755 47.9227 43.3509 48.5742 42.331C49.2276 41.3081 50.2068 40.2607 51.8211 38.9895L51.2024 38.2039C49.5354 39.5167 48.4653 40.6438 47.7314 41.7927C46.9956 42.9446 46.6168 44.0891 46.2944 45.3996L47.2655 45.6385ZM88.5975 38.9895C90.3292 40.3532 91.2501 41.3632 91.8046 42.3315C92.3581 43.2982 92.5701 44.2617 92.8152 45.6086L93.7991 45.4295C93.5537 44.0812 93.3195 42.9646 92.6724 41.8346C92.0263 40.7062 90.9923 39.6026 89.2161 38.2039L88.5975 38.9895ZM65.2356 33.2441L67.9588 37.0682L68.7734 36.4882L66.0501 32.664L65.2356 33.2441ZM68.3661 37.2782H72.1786V36.2782H68.3661V37.2782ZM72.5859 37.0682L75.3091 33.2441L74.4945 32.664L71.7713 36.4882L72.5859 37.0682ZM71.7012 36.9269L74.4244 45.6678L75.3792 45.3703L72.6559 36.6295L71.7012 36.9269ZM67.8977 36.6031L64.6299 45.344L65.5666 45.6941L68.8344 36.9533L67.8977 36.6031ZM81.4821 18.1695C81.4821 23.7185 79.3636 27.4197 76.8759 29.7373C74.365 32.0766 71.4874 33.0003 70.002 33.0003V34.0003C71.7825 34.0003 74.8949 32.9497 77.5576 30.469C80.2435 27.9667 82.4821 24.0024 82.4821 18.1695H81.4821ZM70.002 33.0003C68.5142 33.0003 65.5784 32.0746 63.0397 29.7354C60.5255 27.4189 58.4096 23.7221 58.5218 18.1796L57.522 18.1593C57.4038 23.9988 59.6451 27.9675 62.3621 30.4709C65.0545 32.9517 68.224 34.0003 70.002 34.0003V33.0003ZM58.5219 18.1695C58.5219 13.7317 59.7673 10.3171 61.8018 8.01897C63.832 5.7257 66.6859 4.5 70.002 4.5V3.5C66.426 3.5 63.2899 4.82945 61.053 7.35611C58.8205 9.87792 57.5219 13.5481 57.5219 18.1695H58.5219ZM70.002 4.5C73.325 4.5 76.1776 5.67241 78.2043 7.93411C80.2353 10.2007 81.4821 13.6127 81.4821 18.1695H82.4821C82.4821 13.4348 81.185 9.76203 78.949 7.26676C76.7086 4.7666 73.5712 3.5 70.002 3.5V4.5ZM81.8013 14.9049C79.2722 15.8863 76.6389 16.7296 73.7445 16.5976C70.8655 16.4663 67.6742 15.3662 64.0477 12.3561L63.409 13.1256C67.1764 16.2526 70.5704 17.4539 73.6989 17.5966C76.8122 17.7385 79.6088 16.8284 82.163 15.8372L81.8013 14.9049ZM63.3842 12.3781C62.3633 13.3466 61.6512 13.8601 61.0159 14.1866C60.378 14.5144 59.7956 14.6664 58.9764 14.8884L59.2379 15.8536C60.0361 15.6373 60.7246 15.4606 61.473 15.076C62.224 14.6901 63.0139 14.1077 64.0725 13.1036L63.3842 12.3781Z" fill="#bb9c66"/>
<circle cx="128.5" cy="12" r="12" fill="#FFCE3A"/>
<path d="M124.8 16.4286V14.5487C125.456 15.0272 126.222 15.2665 127.097 15.2665C127.648 15.2665 128.076 15.148 128.382 14.911C128.692 14.674 128.847 14.3436 128.847 13.9198C128.847 13.4823 128.655 13.1451 128.272 12.9081C127.894 12.6711 127.372 12.5526 126.707 12.5526H125.798V10.8983H126.639C127.915 10.8983 128.553 10.4745 128.553 9.62683C128.553 8.82931 128.063 8.43054 127.083 8.43054C126.427 8.43054 125.789 8.64246 125.169 9.06628V7.30261C125.857 6.95626 126.659 6.78308 127.575 6.78308C128.578 6.78308 129.357 7.00867 129.913 7.45984C130.474 7.91101 130.754 8.49662 130.754 9.21667C130.754 10.4973 130.104 11.2994 128.806 11.6229V11.6571C129.498 11.7437 130.045 11.9966 130.446 12.4159C130.847 12.8306 131.048 13.341 131.048 13.9471C131.048 14.8632 130.713 15.5878 130.043 16.121C129.373 16.6542 128.448 16.9208 127.268 16.9208C126.256 16.9208 125.433 16.7567 124.8 16.4286Z" fill="white"/>
</svg>
