<svg width="141" height="92" viewBox="0 0 141 92" fill="none" xmlns="http://www.w3.org/2000/svg">
<path d="M77.3408 83.616C88.6057 78.9725 97.2234 69.2387 99.3587 57.0081C101.049 47.3254 98.3536 37.9295 92.6392 30.6019M63.5002 83.7777C52.2352 79.1341 43.6176 69.4003 41.4822 57.1697C39.7917 47.4871 42.4873 38.0912 48.2017 30.7636M52.5 52L60.4886 42M52.5 52L70.8086 72M52.5 52H88.5M60.4886 42L70.8086 42M60.4886 42L66.3858 48M81.1286 42L88.5 52M81.1286 42H70.8086M81.1286 42L75.2315 48M88.5 52L70.8086 72M70.8086 72L63.4372 52L70.8086 42M70.8086 72L78.18 52L70.8086 42M89.4629 21.1001C92.7612 24.5775 93.0749 28.3288 91.699 29.7948C90.323 31.2608 85.764 29.456 83.179 26.4079C79.1627 21.6719 79.7546 17.2019 79.7546 17.2019C79.7546 17.2019 86.1645 17.6227 89.4629 21.1001ZM105.286 33.7491C104.096 38.3222 101.025 40.6404 99.0002 40.3386C96.9751 40.0367 96.0254 35.3684 97.2375 31.6067C99.1208 25.762 103.311 23.7779 103.311 23.7779C103.311 23.7779 106.477 29.176 105.286 33.7491ZM110.353 48.9448C107.024 52.961 102.889 53.9168 101.021 52.7308C99.1538 51.5447 100.404 46.497 103.373 43.2953C107.987 38.3206 113.076 38.1867 113.076 38.1867C113.076 38.1867 113.682 44.9285 110.353 48.9448ZM108.431 65.4094C103.849 68.0351 99.6305 67.5224 98.3158 65.7769C97.0011 64.0315 100.013 59.733 103.961 57.7472C110.094 54.6617 114.906 56.2684 114.906 56.2684C114.906 56.2684 113.012 62.7837 108.431 65.4094ZM97.8684 80.8109C92.8324 82.4894 88.8076 81.1647 87.885 79.1989C86.9623 77.2331 90.8115 73.6104 95.093 72.4351C101.745 70.6089 106.122 73.1206 106.122 73.1206C106.122 73.1206 102.905 79.1324 97.8684 80.8109ZM51.3345 21.2901C48.0757 24.8021 47.8045 28.5564 49.1969 30.0078C50.5893 31.4592 55.1277 29.6065 57.678 26.5313C61.6405 21.7532 60.9981 17.2897 60.9981 17.2897C60.9981 17.2897 54.5933 17.7781 51.3345 21.2901ZM35.5546 33.9188C36.7451 38.4919 39.8157 40.8101 41.8407 40.5082C43.8658 40.2064 44.8155 35.5381 43.6034 31.7764C41.7201 25.9316 37.5295 23.9476 37.5295 23.9476C37.5295 23.9476 34.3641 29.3457 35.5546 33.9188ZM30.4878 49.1144C33.8167 53.1307 37.952 54.0865 39.8195 52.9004C41.687 51.7144 40.4371 46.6667 37.4678 43.4649C32.8543 38.4902 27.7646 38.3563 27.7646 38.3563C27.7646 38.3563 27.1589 45.0982 30.4878 49.1144ZM32.41 65.579C36.9913 68.2047 41.2102 67.692 42.5249 65.9465C43.8397 64.2011 40.8273 59.9026 36.8798 57.9168C30.7464 54.8313 25.9344 56.438 25.9344 56.438C25.9344 56.438 27.8287 62.9533 32.41 65.579ZM42.9723 80.9544C48.0084 82.6329 52.0332 81.3082 52.9558 79.3424C53.8784 77.3766 50.0292 73.7539 45.7477 72.5786C39.0954 70.7524 34.7185 73.2641 34.7185 73.2641C34.7185 73.2641 37.9362 79.276 42.9723 80.9544Z" stroke="#bb9c66" stroke-linecap="round" stroke-linejoin="round"/>
<circle cx="128.5" cy="12" r="12" fill="#FF9595"/>
<path d="M129.688 6.72839V16.7499H127.534V9.16199C127.416 9.26681 127.275 9.36707 127.11 9.46277C126.951 9.55391 126.78 9.63822 126.598 9.7157C126.415 9.78861 126.226 9.85242 126.03 9.9071C125.834 9.95723 125.641 9.99369 125.449 10.0165V8.19812C126.01 8.03406 126.539 7.82442 127.035 7.56921C127.532 7.31401 127.981 7.03373 128.382 6.72839H129.688Z" fill="white"/>
</svg>
