<svg width="141" height="92" viewBox="0 0 141 92" fill="none" xmlns="http://www.w3.org/2000/svg">
<path d="M33.5562 57.476L34.0562 57.4862V57.476H33.5562ZM29.5848 71.2713L29.8936 71.6646H29.8936L29.5848 71.2713ZM36.8939 68.1386C37.1369 68.0074 37.2276 67.7041 37.0964 67.4611C36.9653 67.2181 36.662 67.1274 36.4189 67.2586L36.8939 68.1386ZM44.3353 67.2803C44.1043 67.129 43.7944 67.1936 43.6431 67.4245C43.4917 67.6555 43.5563 67.9655 43.7873 68.1168L44.3353 67.2803ZM50.6509 71.2713L50.9597 70.878L50.6509 71.2713ZM26.0137 76.8837C25.9495 77.1523 26.1151 77.4221 26.3837 77.4863C26.6523 77.5505 26.9221 77.3849 26.9863 77.1163L26.0137 76.8837ZM53.014 77.1173C53.0787 77.3857 53.3489 77.5508 53.6173 77.486C53.8857 77.4213 54.0508 77.1511 53.986 76.8827L53.014 77.1173ZM64.5562 66.476L65.0562 66.4862V66.476H64.5562ZM60.5849 80.2713L60.8936 80.6646L60.5849 80.2713ZM67.8939 77.1386C68.1369 77.0074 68.2276 76.7041 68.0964 76.4611C67.9653 76.2181 67.662 76.1274 67.4189 76.2586L67.8939 77.1386ZM75.3353 76.2803C75.1043 76.129 74.7944 76.1936 74.6431 76.4245C74.4917 76.6555 74.5563 76.9655 74.7873 77.1168L75.3353 76.2803ZM81.6509 80.2713L81.9597 79.878L81.6509 80.2713ZM57.0137 85.8837C56.9495 86.1523 57.1151 86.4221 57.3837 86.4863C57.6523 86.5505 57.9221 86.3849 57.9863 86.1163L57.0137 85.8837ZM84.014 86.1173C84.0787 86.3857 84.3489 86.5508 84.6173 86.486C84.8857 86.4213 85.0508 86.1511 84.986 85.8827L84.014 86.1173ZM95.5562 57.476L96.0562 57.4862V57.476H95.5562ZM91.5848 71.2713L91.8936 71.6646L91.5848 71.2713ZM98.8939 68.1386C99.1369 68.0074 99.2276 67.7041 99.0964 67.4611C98.9653 67.2181 98.662 67.1274 98.4189 67.2586L98.8939 68.1386ZM106.335 67.2803C106.104 67.129 105.794 67.1936 105.643 67.4245C105.492 67.6555 105.556 67.9655 105.787 68.1168L106.335 67.2803ZM112.651 71.2713L112.96 70.878L112.651 71.2713ZM88.0137 76.8837C87.9495 77.1523 88.1151 77.4221 88.3837 77.4863C88.6523 77.5505 88.9221 77.3849 88.9863 77.1163L88.0137 76.8837ZM115.014 77.1173C115.079 77.3857 115.349 77.5508 115.617 77.486C115.886 77.4213 116.051 77.1511 115.986 76.8827L115.014 77.1173ZM102.5 33L102.962 32.808C102.884 32.6215 102.702 32.5 102.5 32.5C102.298 32.5 102.116 32.6215 102.038 32.808L102.5 33ZM104.087 36.8157L103.625 37.0077C103.697 37.1808 103.86 37.2991 104.047 37.3141L104.087 36.8157ZM108.206 37.1459L108.532 37.5256C108.685 37.3942 108.744 37.1835 108.682 36.9914C108.619 36.7993 108.448 36.6636 108.246 36.6475L108.206 37.1459ZM105.068 39.8343L104.743 39.4546C104.6 39.5766 104.538 39.768 104.582 39.9504L105.068 39.8343ZM106.027 43.8541L105.766 44.2808C105.938 44.3861 106.157 44.3773 106.321 44.2586C106.484 44.1399 106.56 43.9345 106.513 43.7381L106.027 43.8541ZM102.5 41.7L102.761 41.2733C102.601 41.1756 102.399 41.1756 102.239 41.2733L102.5 41.7ZM98.9733 43.8541L98.4869 43.7381C98.4401 43.9345 98.516 44.1399 98.6794 44.2586C98.8428 44.3773 99.0616 44.3861 99.2339 44.2808L98.9733 43.8541ZM99.9321 39.8343L100.418 39.9504C100.462 39.768 100.4 39.5766 100.257 39.4546L99.9321 39.8343ZM96.7937 37.1459L96.7537 36.6475C96.5524 36.6636 96.3805 36.7993 96.3181 36.9914C96.2557 37.1835 96.315 37.3942 96.4684 37.5256L96.7937 37.1459ZM100.913 36.8157L100.953 37.3141C101.14 37.2991 101.303 37.1808 101.375 37.0077L100.913 36.8157ZM40.5 33L40.9617 32.808C40.8841 32.6215 40.702 32.5 40.5 32.5C40.298 32.5 40.1159 32.6215 40.0383 32.808L40.5 33ZM42.087 36.8157L41.6254 37.0077C41.6974 37.1808 41.8602 37.2991 42.0471 37.3141L42.087 36.8157ZM46.2063 37.1459L46.5316 37.5256C46.685 37.3942 46.7443 37.1835 46.6819 36.9914C46.6195 36.7993 46.4476 36.6636 46.2463 36.6475L46.2063 37.1459ZM43.0679 39.8343L42.7426 39.4546C42.6002 39.5766 42.538 39.768 42.5815 39.9504L43.0679 39.8343ZM44.0267 43.8541L43.7661 44.2808C43.9384 44.3861 44.1572 44.3773 44.3206 44.2586C44.484 44.1399 44.5599 43.9345 44.5131 43.7381L44.0267 43.8541ZM40.5 41.7L40.7606 41.2733C40.6006 41.1756 40.3994 41.1756 40.2394 41.2733L40.5 41.7ZM36.9733 43.8541L36.4869 43.7381C36.4401 43.9345 36.516 44.1399 36.6794 44.2586C36.8428 44.3773 37.0616 44.3861 37.2339 44.2808L36.9733 43.8541ZM37.9321 39.8343L38.4185 39.9504C38.462 39.768 38.3998 39.5766 38.2574 39.4546L37.9321 39.8343ZM34.7937 37.1459L34.7537 36.6475C34.5524 36.6636 34.3805 36.7993 34.3181 36.9914C34.2557 37.1835 34.315 37.3942 34.4684 37.5256L34.7937 37.1459ZM38.913 36.8157L38.9529 37.3141C39.1398 37.2991 39.3026 37.1808 39.3746 37.0077L38.913 36.8157ZM71.5 16L71.9617 15.808C71.8841 15.6215 71.702 15.5 71.5 15.5C71.298 15.5 71.1159 15.6215 71.0383 15.808L71.5 16ZM74.674 23.6313L74.2124 23.8233C74.2844 23.9964 74.4472 24.1147 74.6341 24.1297L74.674 23.6313ZM82.9127 24.2918L83.238 24.6715C83.3913 24.5401 83.4506 24.3294 83.3882 24.1373C83.3258 23.9452 83.154 23.8095 82.9526 23.7934L82.9127 24.2918ZM76.6357 29.6687L76.3104 29.289C76.168 29.4109 76.1058 29.6023 76.1493 29.7847L76.6357 29.6687ZM78.5534 37.7082L78.2928 38.1349C78.4652 38.2402 78.6839 38.2314 78.8473 38.1127C79.0107 37.994 79.0866 37.7886 79.0398 37.5922L78.5534 37.7082ZM71.5 33.4L71.7606 32.9733C71.6006 32.8756 71.3994 32.8756 71.2394 32.9733L71.5 33.4ZM64.4466 37.7082L63.9602 37.5922C63.9134 37.7886 63.9893 37.994 64.1527 38.1127C64.3161 38.2314 64.5348 38.2402 64.7072 38.1349L64.4466 37.7082ZM66.3643 29.6687L66.8507 29.7847C66.8942 29.6023 66.832 29.4109 66.6896 29.289L66.3643 29.6687ZM60.0873 24.2918L60.0474 23.7934C59.846 23.8095 59.6742 23.9452 59.6118 24.1373C59.5494 24.3294 59.6087 24.5401 59.762 24.6715L60.0873 24.2918ZM68.326 23.6313L68.3659 24.1297C68.5528 24.1147 68.7156 23.9964 68.7876 23.8233L68.326 23.6313ZM45.811 57.476C45.811 60.3211 44.6265 62.2121 43.2954 63.3992C42.6254 63.9967 41.9161 64.4173 41.2988 64.6873C40.669 64.9628 40.174 65.0648 39.9336 65.0648V66.0648C40.3677 66.0648 41.0071 65.9063 41.6995 65.6035C42.4045 65.2951 43.2053 64.8195 43.961 64.1455C45.4813 62.7896 46.811 60.6362 46.811 57.476H45.811ZM39.9336 65.0648C39.6921 65.0648 39.1887 64.9622 38.5487 64.6862C37.9213 64.4158 37.2008 63.9948 36.5238 63.3974C35.1793 62.2112 33.9981 60.3246 34.056 57.4862L33.0563 57.4658C32.9916 60.6327 34.3245 62.7905 35.8622 64.1473C36.6262 64.8215 37.4387 65.2967 38.1528 65.6045C38.8541 65.9069 39.5005 66.0648 39.9336 66.0648V65.0648ZM34.0562 57.476C34.0562 55.179 34.706 53.4384 35.7419 52.2787C36.7739 51.1233 38.2276 50.5 39.9336 50.5V49.5C37.9707 49.5 36.2356 50.2248 34.9961 51.6125C33.7605 52.9958 33.0562 54.9932 33.0562 57.476H34.0562ZM39.9336 50.5C41.6464 50.5 43.0988 51.0974 44.1272 52.235C45.1597 53.3769 45.811 55.1149 45.811 57.476H46.811C46.811 54.9348 46.1081 52.9348 44.869 51.5643C43.626 50.1895 41.8896 49.5 39.9336 49.5V50.5ZM29.8936 71.6646C30.7805 70.9683 31.8148 70.4648 33.0019 69.9424C34.1765 69.4254 35.5037 68.8888 36.8939 68.1386L36.4189 67.2586C35.0752 67.9837 33.8067 68.4956 32.599 69.0271C31.4038 69.5531 30.2693 70.0983 29.2761 70.878L29.8936 71.6646ZM43.7873 68.1168C44.9505 68.8789 46.1657 69.4193 47.2853 69.9384C48.4188 70.4638 49.4534 70.9669 50.3422 71.6646L50.9597 70.878C49.9683 70.0997 48.8341 69.5541 47.7059 69.0311C46.5637 68.5016 45.4241 67.9937 44.3353 67.2803L43.7873 68.1168ZM26.9863 77.1163C27.3129 75.7507 27.4323 74.9041 27.7846 74.1022C28.1174 73.3444 28.6677 72.6271 29.8936 71.6646L29.2761 70.878C27.9684 71.9047 27.2888 72.7444 26.869 73.7C26.4686 74.6115 26.3124 75.6347 26.0137 76.8837L26.9863 77.1163ZM50.3422 71.6646C51.6303 72.6759 52.0885 73.3176 52.3379 74.006C52.4691 74.3681 52.5492 74.7612 52.6422 75.2722C52.7339 75.7762 52.8361 76.3805 53.014 77.1173L53.986 76.8827C53.8164 76.1799 53.7198 75.6082 53.626 75.0931C53.5335 74.5848 53.4413 74.1156 53.2781 73.6653C52.9388 72.729 52.32 71.946 50.9597 70.878L50.3422 71.6646ZM76.811 66.476C76.811 69.3211 75.6265 71.2121 74.2954 72.3992C73.6254 72.9967 72.9161 73.4173 72.2988 73.6873C71.669 73.9628 71.174 74.0648 70.9336 74.0648V75.0648C71.3677 75.0648 72.0071 74.9063 72.6995 74.6035C73.4045 74.2951 74.2053 73.8195 74.961 73.1455C76.4813 71.7896 77.811 69.6362 77.811 66.476H76.811ZM70.9336 74.0648C70.6921 74.0648 70.1887 73.9622 69.5487 73.6862C68.9213 73.4158 68.2008 72.9948 67.5238 72.3974C66.1793 71.2112 64.9981 69.3246 65.056 66.4862L64.0563 66.4658C63.9916 69.6327 65.3245 71.7905 66.8622 73.1473C67.6262 73.8215 68.4387 74.2967 69.1528 74.6045C69.8541 74.9069 70.5005 75.0648 70.9336 75.0648V74.0648ZM65.0562 66.476C65.0562 64.179 65.706 62.4384 66.7419 61.2787C67.7739 60.1233 69.2276 59.5 70.9336 59.5V58.5C68.9707 58.5 67.2356 59.2248 65.9961 60.6125C64.7605 61.9958 64.0562 63.9932 64.0562 66.476H65.0562ZM70.9336 59.5C72.6464 59.5 74.0988 60.0974 75.1272 61.235C76.1597 62.3769 76.811 64.1149 76.811 66.476H77.811C77.811 63.9348 77.1081 61.9348 75.869 60.5643C74.626 59.1895 72.8896 58.5 70.9336 58.5V59.5ZM60.8936 80.6646C61.7805 79.9683 62.8148 79.4648 64.0019 78.9424C65.1765 78.4254 66.5037 77.8888 67.8939 77.1386L67.4189 76.2586C66.0752 76.9837 64.8067 77.4956 63.599 78.0271C62.4038 78.5531 61.2693 79.0983 60.2761 79.878L60.8936 80.6646ZM74.7873 77.1168C75.9505 77.8789 77.1657 78.4193 78.2853 78.9384C79.4188 79.4638 80.4534 79.9669 81.3422 80.6646L81.9597 79.878C80.9683 79.0997 79.8341 78.5541 78.7058 78.0311C77.5637 77.5016 76.4241 76.9937 75.3353 76.2803L74.7873 77.1168ZM57.9863 86.1163C58.3129 84.7507 58.4323 83.9041 58.7846 83.1022C59.1174 82.3444 59.6677 81.6271 60.8936 80.6646L60.2761 79.878C58.9684 80.9047 58.2888 81.7444 57.869 82.7C57.4686 83.6115 57.3124 84.6347 57.0137 85.8837L57.9863 86.1163ZM81.3422 80.6646C82.6302 81.6759 83.0885 82.3176 83.3379 83.006C83.4691 83.3681 83.5492 83.7612 83.6422 84.2722C83.7339 84.7762 83.8361 85.3805 84.014 86.1173L84.986 85.8827C84.8164 85.1799 84.7198 84.6082 84.626 84.0931C84.5335 83.5848 84.4413 83.1156 84.2781 82.6653C83.9388 81.729 83.32 80.946 81.9597 79.878L81.3422 80.6646ZM107.811 57.476C107.811 60.3211 106.627 62.2121 105.295 63.3992C104.625 63.9967 103.916 64.4173 103.299 64.6873C102.669 64.9628 102.174 65.0648 101.934 65.0648V66.0648C102.368 66.0648 103.007 65.9063 103.7 65.6035C104.405 65.2951 105.205 64.8195 105.961 64.1455C107.481 62.7896 108.811 60.6362 108.811 57.476H107.811ZM101.934 65.0648C101.692 65.0648 101.189 64.9622 100.549 64.6862C99.9213 64.4158 99.2008 63.9948 98.5238 63.3974C97.1794 62.2112 95.9981 60.3246 96.056 57.4862L95.0563 57.4658C94.9916 60.6327 96.3245 62.7905 97.8622 64.1473C98.6262 64.8215 99.4387 65.2967 100.153 65.6045C100.854 65.9069 101.5 66.0648 101.934 66.0648V65.0648ZM96.0562 57.476C96.0562 55.179 96.706 53.4384 97.7419 52.2787C98.7739 51.1233 100.228 50.5 101.934 50.5V49.5C99.9707 49.5 98.2356 50.2248 96.9961 51.6125C95.7606 52.9958 95.0562 54.9932 95.0562 57.476H96.0562ZM101.934 50.5C103.646 50.5 105.099 51.0974 106.127 52.235C107.16 53.3769 107.811 55.1149 107.811 57.476H108.811C108.811 54.9348 108.108 52.9348 106.869 51.5643C105.626 50.1895 103.89 49.5 101.934 49.5V50.5ZM91.8936 71.6646C92.7805 70.9683 93.8148 70.4648 95.0019 69.9424C96.1765 69.4254 97.5037 68.8888 98.8939 68.1386L98.4189 67.2586C97.0752 67.9837 95.8067 68.4956 94.599 69.0271C93.4038 69.5531 92.2693 70.0983 91.2761 70.878L91.8936 71.6646ZM105.787 68.1168C106.95 68.8789 108.166 69.4193 109.285 69.9384C110.419 70.4638 111.453 70.9669 112.342 71.6646L112.96 70.878C111.968 70.0997 110.834 69.5541 109.706 69.0311C108.564 68.5016 107.424 67.9937 106.335 67.2803L105.787 68.1168ZM88.9863 77.1163C89.3129 75.7507 89.4323 74.9041 89.7846 74.1022C90.1174 73.3444 90.6677 72.6271 91.8936 71.6646L91.2761 70.878C89.9684 71.9047 89.2888 72.7444 88.869 73.7C88.4686 74.6115 88.3124 75.6347 88.0137 76.8837L88.9863 77.1163ZM112.342 71.6646C113.63 72.6759 114.088 73.3176 114.338 74.006C114.469 74.3681 114.549 74.7612 114.642 75.2722C114.734 75.7762 114.836 76.3805 115.014 77.1173L115.986 76.8827C115.816 76.1799 115.72 75.6082 115.626 75.0931C115.533 74.5848 115.441 74.1156 115.278 73.6653C114.939 72.729 114.32 71.946 112.96 70.878L112.342 71.6646ZM102.038 33.192L103.625 37.0077L104.549 36.6236L102.962 32.808L102.038 33.192ZM104.047 37.3141L108.166 37.6443L108.246 36.6475L104.127 36.3173L104.047 37.3141ZM107.881 36.7662L104.743 39.4546L105.393 40.2141L108.532 37.5256L107.881 36.7662ZM104.582 39.9504L105.54 43.9701L106.513 43.7381L105.554 39.7183L104.582 39.9504ZM106.287 43.4274L102.761 41.2733L102.239 42.1267L105.766 44.2808L106.287 43.4274ZM102.239 41.2733L98.7127 43.4274L99.2339 44.2808L102.761 42.1267L102.239 41.2733ZM99.4596 43.9701L100.418 39.9504L99.4458 39.7183L98.4869 43.7381L99.4596 43.9701ZM100.257 39.4546L97.1189 36.7662L96.4684 37.5256L99.6069 40.2141L100.257 39.4546ZM96.8336 37.6443L100.953 37.3141L100.873 36.3173L96.7537 36.6475L96.8336 37.6443ZM101.375 37.0077L102.962 33.192L102.038 32.808L100.451 36.6236L101.375 37.0077ZM40.0383 33.192L41.6254 37.0077L42.5487 36.6236L40.9617 32.808L40.0383 33.192ZM42.0471 37.3141L46.1664 37.6443L46.2463 36.6475L42.127 36.3173L42.0471 37.3141ZM45.8811 36.7662L42.7426 39.4546L43.3931 40.2141L46.5316 37.5256L45.8811 36.7662ZM42.5815 39.9504L43.5404 43.9701L44.5131 43.7381L43.5542 39.7183L42.5815 39.9504ZM44.2873 43.4274L40.7606 41.2733L40.2394 42.1267L43.7661 44.2808L44.2873 43.4274ZM40.2394 41.2733L36.7127 43.4274L37.2339 44.2808L40.7606 42.1267L40.2394 41.2733ZM37.4596 43.9701L38.4185 39.9504L37.4458 39.7183L36.4869 43.7381L37.4596 43.9701ZM38.2574 39.4546L35.1189 36.7662L34.4684 37.5256L37.6069 40.2141L38.2574 39.4546ZM34.8336 37.6443L38.9529 37.3141L38.873 36.3173L34.7537 36.6475L34.8336 37.6443ZM39.3746 37.0077L40.9617 33.192L40.0383 32.808L38.4513 36.6236L39.3746 37.0077ZM71.0383 16.192L74.2124 23.8233L75.1357 23.4393L71.9617 15.808L71.0383 16.192ZM74.6341 24.1297L82.8727 24.7902L82.9526 23.7934L74.714 23.1329L74.6341 24.1297ZM82.5874 23.9121L76.3104 29.289L76.961 30.0484L83.238 24.6715L82.5874 23.9121ZM76.1493 29.7847L78.0671 37.8242L79.0398 37.5922L77.1221 29.5527L76.1493 29.7847ZM78.814 37.2815L71.7606 32.9733L71.2394 33.8267L78.2928 38.1349L78.814 37.2815ZM71.2394 32.9733L64.186 37.2815L64.7072 38.1349L71.7606 33.8267L71.2394 32.9733ZM64.9329 37.8242L66.8507 29.7847L65.8779 29.5527L63.9602 37.5922L64.9329 37.8242ZM66.6896 29.289L60.4126 23.9121L59.762 24.6715L66.039 30.0484L66.6896 29.289ZM60.1273 24.7902L68.3659 24.1297L68.286 23.1329L60.0474 23.7934L60.1273 24.7902ZM68.7876 23.8233L71.9617 16.192L71.0383 15.808L67.8643 23.4393L68.7876 23.8233Z" fill="#bb9c66"/>
<circle cx="71.5" cy="28" r="20" stroke="#bb9c66" stroke-linecap="round" stroke-linejoin="round" stroke-dasharray="2 3"/>
<circle cx="128.5" cy="12" r="12" fill="#6FCF97"/>
<path d="M130.508 6.94714V13.1268H131.684V14.7401H130.508V16.7499H128.539V14.7401H124.267V13.0516C124.645 12.6278 125.037 12.1652 125.442 11.6639C125.848 11.1581 126.24 10.6385 126.618 10.1053C126.996 9.57214 127.347 9.03666 127.671 8.4989C127.999 7.95658 128.277 7.43933 128.505 6.94714H130.508ZM126.201 13.1268H128.539V9.70203C128.38 9.99825 128.206 10.299 128.02 10.6044C127.833 10.9052 127.637 11.2037 127.432 11.4999C127.227 11.7915 127.019 12.0764 126.81 12.3544C126.6 12.6278 126.397 12.8853 126.201 13.1268Z" fill="white"/>
</svg>
