<svg width="62" height="70" viewBox="0 0 62 70" fill="none" xmlns="http://www.w3.org/2000/svg">
<path d="M61 30.5093V64.5093C61 66.7184 59.2091 68.5093 57 68.5093H5C2.79086 68.5093 1 66.7184 1 64.5093V30.5093M61 30.5093L40.1445 43.5M61 30.5093L50.5 23.1361M1 30.5093L20.6445 43.5M1 30.5093L10.9353 23.5327M60.1445 67.0002L31.99 42.186C31.2244 41.5112 30.0736 41.5211 29.3196 42.2089L2.14455 67.0002" stroke="#bb9c66" stroke-linecap="round" stroke-linejoin="round"/>
<circle cx="31.1445" cy="15.5" r="15.5" fill="#bb9c66"/>
<path d="M39.0899 14.9317C39.0899 15.8937 38.9386 16.775 38.6358 17.5756C38.3331 18.3694 37.9059 18.9883 37.3543 19.4323C36.8093 19.8763 36.177 20.0983 35.4571 20.0983C34.9257 20.0983 34.4648 19.9571 34.0746 19.6745C33.6844 19.392 33.4221 19.0085 33.2875 18.5241H33.1664C32.8368 19.0489 32.4298 19.4424 31.9454 19.7048C31.461 19.9672 30.9161 20.0983 30.3106 20.0983C29.2141 20.0983 28.3496 19.7452 27.7172 19.0388C27.0916 18.3324 26.7787 17.3771 26.7787 16.1729C26.7787 14.787 27.1958 13.6636 28.03 12.8024C28.8642 11.9346 29.9844 11.5007 31.3904 11.5007C31.9017 11.5007 32.4668 11.5478 33.0857 11.642C33.4175 11.6883 33.7294 11.7451 34.0215 11.8123C34.458 11.9127 34.7361 12.3244 34.715 12.7718L34.5287 16.7077V16.9499C34.5287 18.0263 34.8786 18.5645 35.5782 18.5645C36.1097 18.5645 36.5301 18.2214 36.8396 17.5352C37.1558 16.849 37.3139 15.9744 37.3139 14.9115C37.3139 13.7611 37.0784 12.752 36.6075 11.8842C36.1366 11.0096 35.4672 10.3368 34.5994 9.86593C33.7315 9.39501 32.7359 9.15955 31.6124 9.15955C30.1795 9.15955 28.9315 9.45555 27.8686 10.0476C26.8124 10.6396 26.0051 11.4872 25.4467 12.5905C24.8883 13.6871 24.6091 14.962 24.6091 16.4151C24.6091 18.366 25.1305 19.8663 26.1733 20.9157C27.216 21.9652 28.7129 22.4899 30.6638 22.4899C31.8191 22.4899 33.0129 22.3072 34.2453 21.9416C34.7693 21.7862 35.3158 22.1648 35.3158 22.7114C35.3158 23.0291 35.1246 23.3178 34.8252 23.4242C33.5491 23.8778 32.1754 24.1045 30.7042 24.1045C28.215 24.1045 26.2742 23.4352 24.8816 22.0964C23.489 20.7509 22.7927 18.8773 22.7927 16.4756C22.7927 14.7198 23.1695 13.159 23.9229 11.7933C24.6764 10.4209 25.7192 9.37146 27.0512 8.6449C28.39 7.91833 29.9036 7.55505 31.5922 7.55505C33.0521 7.55505 34.3505 7.85779 35.4874 8.46326C36.6311 9.06873 37.5157 9.9332 38.1414 11.0567C38.7737 12.1734 39.0899 13.4651 39.0899 14.9317ZM28.7162 16.2133C28.7162 17.7807 29.3318 18.5645 30.5629 18.5645C31.8613 18.5645 32.5711 17.5789 32.6921 15.6078L32.8132 13.196C32.3894 13.0816 31.9353 13.0245 31.4509 13.0245C30.5898 13.0245 29.9171 13.3104 29.4327 13.8822C28.9551 14.454 28.7162 15.2311 28.7162 16.2133Z" fill="white"/>
</svg>
