<svg width="92" height="92" viewBox="0 0 92 92" fill="none" xmlns="http://www.w3.org/2000/svg">
<path d="M52.2857 7.06452V27.3871C52.2857 31.8766 55.8035 35.5161 60.1429 35.5161C64.4822 35.5161 68 31.8766 68 27.3871V7.06452M57.5238 35.5161C57.5823 53.6087 57.2591 64.7337 56.4044 82.9979C56.3025 85.174 57.979 87 60.0847 87C62.2335 87 63.9237 85.1022 63.7824 82.8839C63.1102 72.3328 63.1253 64.3369 62.7619 56.5161M62.7619 35.5161V51.0968M36.5714 35.5161C36.5129 53.6087 36.8362 64.7337 37.6909 82.9979C37.7927 85.174 36.1162 87 34.0105 87C31.8617 87 30.1705 85.102 30.3356 82.8855C30.9847 74.169 30.9741 73.0541 31.3333 65.3226M31.3333 35.5161V59.9032M57.5238 24.6774V7.06452M62.7619 24.6774V7.06452M24.144 12.4839C22.9146 15.4418 22.1667 18.7688 22.1667 21.9677C22.1667 30.9468 27.4433 35.5161 33.9524 35.5161C40.4615 35.5161 45.7381 30.9468 45.7381 21.9677C45.7381 12.9887 39.8452 3 33.9524 3C31.6035 3 29.2546 4.58701 27.2789 7.06452M18.8929 34.1613L20.768 38.3181L24.7857 40.2581L20.768 42.198L18.8929 46.3548L17.0178 42.198L13 40.2581L17.0178 38.3181L18.8929 34.1613Z" stroke="#bb9c66" stroke-linecap="round" stroke-linejoin="round"/>
</svg>
