<svg width="92" height="92" viewBox="0 0 92 92" fill="none" xmlns="http://www.w3.org/2000/svg">
<path d="M15 45.519V45.019C14.7239 45.019 14.5 45.2428 14.5 45.519H15ZM76 45.519H76.5C76.5 45.2428 76.2761 45.019 76 45.019V45.519ZM76 81.6676V82.1676C76.2761 82.1676 76.5 81.9437 76.5 81.6676H76ZM15 81.6676H14.5C14.5 81.9437 14.7239 82.1676 15 82.1676V81.6676ZM14.5 53.8061C14.5 54.0823 14.7239 54.3061 15 54.3061C15.2761 54.3061 15.5 54.0823 15.5 53.8061H14.5ZM15.5 58.1766C15.5 57.9004 15.2761 57.6766 15 57.6766C14.7239 57.6766 14.5 57.9004 14.5 58.1766H15.5ZM76.5 79.4823C76.5 79.2062 76.2761 78.9823 76 78.9823C75.7239 78.9823 75.5 79.2062 75.5 79.4823H76.5ZM76 85V85.5C76.2761 85.5 76.5 85.2761 76.5 85H76ZM15 85H14.5C14.5 85.2761 14.7239 85.5 15 85.5V85ZM15.5 81.3416C15.5 81.0655 15.2761 80.8416 15 80.8416C14.7239 80.8416 14.5 81.0655 14.5 81.3416H15.5ZM27.0118 38.5967L27.3211 38.9895L27.0118 38.5967ZM41.1429 32.954L41.5501 32.664C41.4243 32.4872 41.1988 32.4119 40.9919 32.4774L41.1429 32.954ZM50.4018 32.954L50.5593 32.4795C50.3509 32.4103 50.1218 32.4852 49.9945 32.664L50.4018 32.954ZM64.4068 38.5967L64.7161 38.2039L64.4068 38.5967ZM21.7944 45.3996C21.7285 45.6677 21.8923 45.9386 22.1605 46.0046C22.4286 46.0705 22.6995 45.9066 22.7655 45.6385L21.7944 45.3996ZM68.3152 45.6086C68.3647 45.8803 68.625 46.0604 68.8967 46.011C69.1684 45.9615 69.3485 45.7012 69.2991 45.4295L68.3152 45.6086ZM49.9244 45.6678C50.0066 45.9314 50.2869 46.0786 50.5505 45.9964C50.8142 45.9143 50.9613 45.634 50.8792 45.3703L49.9244 45.6678ZM40.1299 45.344C40.0332 45.6026 40.1645 45.8907 40.4231 45.9874C40.6818 46.0841 40.9699 45.9528 41.0666 45.6941L40.1299 45.344ZM33.5219 18.1695L34.0219 18.1796V18.1695H33.5219ZM57.4963 15.8372C57.7537 15.7373 57.8814 15.4476 57.7815 15.1901C57.6816 14.9327 57.392 14.805 57.1345 14.9049L57.4963 15.8372ZM39.2284 12.7408L39.5477 12.3561C39.3529 12.1944 39.0679 12.2038 38.8842 12.3781L39.2284 12.7408ZM33.5654 14.8884C33.2989 14.9607 33.1413 15.2353 33.2136 15.5018C33.2858 15.7683 33.5604 15.9259 33.827 15.8536L33.5654 14.8884ZM50.1001 64.6604C50.1887 64.3989 50.0485 64.115 49.7869 64.0264C49.5254 63.9378 49.2415 64.078 49.153 64.3396L50.1001 64.6604ZM44.7919 59.2878C45.0634 59.2373 45.2425 58.9763 45.192 58.7048C45.1415 58.4333 44.8805 58.2542 44.609 58.3047L44.7919 59.2878ZM15 46.019H76V45.019H15V46.019ZM75.5 45.519V81.6676H76.5V45.519H75.5ZM76 81.1676H15V82.1676H76V81.1676ZM15.5 53.8061V45.519H14.5V53.8061H15.5ZM15.5 81.6676V58.1766H14.5V81.6676H15.5ZM75.5 79.4823V85H76.5V79.4823H75.5ZM76 84.5H15V85.5H76V84.5ZM15.5 85V81.3416H14.5V85H15.5ZM45.5 66.9637C43.3712 66.9637 41.6429 65.2323 41.6429 63.0933H40.6429C40.6429 65.7817 42.816 67.9637 45.5 67.9637V66.9637ZM27.3211 38.9895C28.9261 37.7256 30.9687 36.7895 33.3517 35.9401C35.7426 35.0878 38.4095 34.3441 41.2938 33.4307L40.9919 32.4774C38.1563 33.3754 35.4263 34.1389 33.016 34.9981C30.5978 35.8601 28.4347 36.8397 26.7024 38.2039L27.3211 38.9895ZM50.2443 33.4286C52.1917 34.0748 54.8033 34.8099 57.4155 35.7355C60.0189 36.6581 62.4985 37.7304 64.0975 38.9895L64.7161 38.2039C62.9777 36.8349 60.361 35.7184 57.7495 34.793C55.1466 33.8706 52.4243 33.0984 50.5593 32.4795L50.2443 33.4286ZM22.7655 45.6385C23.0762 44.3755 23.4227 43.3509 24.0742 42.331C24.7276 41.3081 25.7068 40.2607 27.3211 38.9895L26.7024 38.2039C25.0354 39.5167 23.9653 40.6438 23.2314 41.7927C22.4956 42.9446 22.1168 44.0891 21.7944 45.3996L22.7655 45.6385ZM64.0975 38.9895C65.8292 40.3532 66.7501 41.3632 67.3046 42.3315C67.8581 43.2982 68.0701 44.2617 68.3152 45.6086L69.2991 45.4295C69.0537 44.0812 68.8195 42.9646 68.1724 41.8346C67.5263 40.7062 66.4923 39.6026 64.7161 38.2039L64.0975 38.9895ZM40.7356 33.2441L43.4588 37.0682L44.2734 36.4882L41.5501 32.664L40.7356 33.2441ZM43.8661 37.2782H47.6786V36.2782H43.8661V37.2782ZM48.0859 37.0682L50.8091 33.2441L49.9945 32.664L47.2713 36.4882L48.0859 37.0682ZM47.2012 36.9269L49.9244 45.6678L50.8792 45.3703L48.1559 36.6295L47.2012 36.9269ZM43.3977 36.6031L40.1299 45.344L41.0666 45.6941L44.3344 36.9533L43.3977 36.6031ZM56.9821 18.1695C56.9821 23.7185 54.8636 27.4197 52.3759 29.7373C49.865 32.0766 46.9874 33.0003 45.502 33.0003V34.0003C47.2825 34.0003 50.3949 32.9497 53.0576 30.469C55.7435 27.9667 57.9821 24.0024 57.9821 18.1695H56.9821ZM45.502 33.0003C44.0142 33.0003 41.0784 32.0746 38.5397 29.7354C36.0255 27.4189 33.9096 23.7221 34.0218 18.1796L33.022 18.1593C32.9038 23.9988 35.1451 27.9675 37.8621 30.4709C40.5545 32.9517 43.724 34.0003 45.502 34.0003V33.0003ZM34.0219 18.1695C34.0219 13.7317 35.2673 10.3171 37.3018 8.01897C39.332 5.7257 42.1859 4.5 45.502 4.5V3.5C41.926 3.5 38.7899 4.82945 36.553 7.35611C34.3205 9.87792 33.0219 13.5481 33.0219 18.1695H34.0219ZM45.502 4.5C48.825 4.5 51.6776 5.67241 53.7043 7.93411C55.7353 10.2007 56.9821 13.6127 56.9821 18.1695H57.9821C57.9821 13.4348 56.685 9.76203 54.449 7.26676C52.2086 4.7666 49.0712 3.5 45.502 3.5V4.5ZM57.1345 14.9049C54.6031 15.8873 52.0127 16.7295 49.1615 16.5976C46.326 16.4665 43.1761 15.3677 39.5477 12.3561L38.909 13.1256C42.6746 16.251 46.0265 17.4537 49.1153 17.5965C52.1882 17.7387 54.9444 16.8274 57.4963 15.8372L57.1345 14.9049ZM38.8842 12.3781C36.9157 14.2455 35.2241 14.4389 33.5654 14.8884L33.827 15.8536C35.4031 15.4264 37.382 15.1815 39.5725 13.1036L38.8842 12.3781ZM49.153 64.3396C48.6355 65.8671 47.1941 66.9637 45.5 66.9637V67.9637C47.6373 67.9637 49.4499 66.58 50.1001 64.6604L49.153 64.3396ZM41.6429 63.0933C41.6429 61.1977 43.0009 59.621 44.7919 59.2878L44.609 58.3047C42.351 58.7248 40.6429 60.7093 40.6429 63.0933H41.6429Z" fill="#bb9c66"/>
<path d="M60.7238 15C59.3891 5.80081 53.3487 1 45.5 1C37.675 1 31.6475 5.999 30.2884 15M44 29C36.8203 29 31 26.3137 31 23M30.5 23C29.6716 23 29 22.3284 29 21.5V16.5C29 15.6716 29.6716 15 30.5 15C31.3284 15 32 15.6716 32 16.5V21.5C32 22.3284 31.3284 23 30.5 23ZM60.5 23C59.6716 23 59 22.3284 59 21.5V16.5C59 15.6716 59.6716 15 60.5 15C61.3284 15 62 15.6716 62 16.5V21.5C62 22.3284 61.3284 23 60.5 23Z" stroke="#bb9c66" stroke-linecap="round" stroke-linejoin="round"/>
<circle cx="49" cy="60" r="3" fill="#bb9c66"/>
</svg>
