<svg width="92" height="92" viewBox="0 0 92 92" fill="none" xmlns="http://www.w3.org/2000/svg">
<path d="M21.7223 34.5V34H21.2223V34.5H21.7223ZM34.5001 34.5H35.0001V34H34.5001V34.5ZM14.5557 71.934C14.5557 71.6579 14.3318 71.434 14.0557 71.434C13.7795 71.434 13.5557 71.6579 13.5557 71.934H14.5557ZM42.1668 37.0556L42.6668 37.0556V37.0556H42.1668ZM41.6668 44.5918C41.6668 44.868 41.8906 45.0918 42.1668 45.0918C42.4429 45.0918 42.6668 44.868 42.6668 44.5918H41.6668ZM42.6668 47.9558C42.6668 47.6796 42.4429 47.4558 42.1668 47.4558C41.8906 47.4558 41.6668 47.6796 41.6668 47.9558H42.6668ZM42.1668 86.8889H41.6668H42.1668ZM13.5557 68.8403C13.5557 69.1164 13.7795 69.3403 14.0557 69.3403C14.3318 69.3403 14.5557 69.1164 14.5557 68.8403H13.5557ZM14.5557 67.5409C14.5557 67.2648 14.3318 67.0409 14.0557 67.0409C13.7795 67.0409 13.5557 67.2648 13.5557 67.5409H14.5557ZM13.5557 64.5709C13.5557 64.8471 13.7795 65.0709 14.0557 65.0709C14.3318 65.0709 14.5557 64.8471 14.5557 64.5709H13.5557ZM36.0646 55.3541C36.2908 55.1957 36.3459 54.8839 36.1875 54.6577C36.0291 54.4315 35.7174 54.3765 35.4912 54.5348L36.0646 55.3541ZM22.7134 63.4793C22.4872 63.6376 22.4321 63.9494 22.5905 64.1756C22.7488 64.4018 23.0606 64.4569 23.2868 64.2985L22.7134 63.4793ZM34.7868 61.743C35.0131 61.5846 35.0681 61.2728 34.9097 61.0466C34.7514 60.8204 34.4396 60.7654 34.2134 60.9237L34.7868 61.743ZM21.4356 69.8682C21.2094 70.0265 21.1544 70.3383 21.3127 70.5645C21.4711 70.7907 21.7828 70.8458 22.0091 70.6874L21.4356 69.8682ZM81.7779 15.3333L82.2779 15.3333V15.3333H81.7779ZM81.7779 80.5H81.2779H81.7779ZM35.8577 12C36.1339 12 36.3577 11.7761 36.3577 11.5C36.3577 11.2239 36.1339 11 35.8577 11V12ZM39.5314 11C39.2552 11 39.0314 11.2239 39.0314 11.5C39.0314 11.7761 39.2552 12 39.5314 12V11ZM40.7559 12C41.032 12 41.2559 11.7761 41.2559 11.5C41.2559 11.2239 41.032 11 40.7559 11V12ZM44.4295 11C44.1534 11 43.9295 11.2239 43.9295 11.5C43.9295 11.7761 44.1534 12 44.4295 12L44.4295 11ZM77.9446 11.5V12V11.5ZM22.5001 29.9C22.5001 30.1761 22.724 30.4 23.0001 30.4C23.2763 30.4 23.5001 30.1761 23.5001 29.9H22.5001ZM45.8581 83.8333C45.582 83.8333 45.3581 84.0572 45.3581 84.3333C45.3581 84.6095 45.582 84.8333 45.8581 84.8333V83.8333ZM28.1112 16.6111V16.1111C27.8351 16.1111 27.6112 16.335 27.6112 16.6111H28.1112ZM76.6668 16.6111H77.1668C77.1668 16.335 76.9429 16.1111 76.6668 16.1111V16.6111ZM27.6112 30.0278C27.6112 30.3039 27.8351 30.5278 28.1112 30.5278C28.3874 30.5278 28.6112 30.3039 28.6112 30.0278H27.6112ZM76.1668 32.9826C76.1668 33.2588 76.3906 33.4826 76.6668 33.4826C76.9429 33.4826 77.1668 33.2588 77.1668 32.9826H76.1668ZM77.1668 36.1771C77.1668 35.9009 76.9429 35.6771 76.6668 35.6771C76.3906 35.6771 76.1668 35.9009 76.1668 36.1771H77.1668ZM76.1668 36.9757C76.1668 37.2518 76.3906 37.4757 76.6668 37.4757C76.9429 37.4757 77.1668 37.2518 77.1668 36.9757H76.1668ZM77.1668 40.1701C77.1668 39.894 76.9429 39.6701 76.6668 39.6701C76.3906 39.6701 76.1668 39.894 76.1668 40.1701H77.1668ZM76.6668 74.1111V74.6111C76.9429 74.6111 77.1668 74.3872 77.1668 74.1111H76.6668ZM49.8334 78.7222C49.5573 78.7222 49.3334 78.9461 49.3334 79.2222C49.3334 79.4984 49.5573 79.7222 49.8334 79.7222V78.7222ZM53.6668 79.7222C53.9429 79.7222 54.1668 79.4984 54.1668 79.2222C54.1668 78.9461 53.9429 78.7222 53.6668 78.7222V79.7222ZM69.2942 23.4044C69.5175 23.2419 69.5669 22.9292 69.4045 22.7059C69.2421 22.4826 68.9293 22.4332 68.706 22.5956L69.2942 23.4044ZM54.6505 32.8179C54.4271 32.9803 54.3778 33.293 54.5402 33.5163C54.7026 33.7396 55.0153 33.789 55.2386 33.6266L54.6505 32.8179ZM68.0164 29.7933C68.2397 29.6308 68.2891 29.3181 68.1267 29.0948C67.9643 28.8715 67.6516 28.8221 67.4282 28.9845L68.0164 29.7933ZM53.3727 39.2067C53.1494 39.3692 53.1 39.6819 53.2624 39.9052C53.4248 40.1285 53.7375 40.1779 53.9609 40.0155L53.3727 39.2067ZM45.9149 73.6111C45.6388 73.6111 45.4149 73.835 45.4149 74.1111C45.4149 74.3872 45.6388 74.6111 45.9149 74.6111V73.6111ZM21.7223 35H34.5001V34H21.7223V35ZM30.6668 37.8333H25.5557V38.8333H30.6668V37.8333ZM25.5557 37.8333C23.7147 37.8333 22.2223 36.3409 22.2223 34.5H21.2223C21.2223 36.8932 23.1624 38.8333 25.5557 38.8333V37.8333ZM34.0001 34.5C34.0001 36.3409 32.5077 37.8333 30.6668 37.8333V38.8333C33.06 38.8333 35.0001 36.8932 35.0001 34.5H34.0001ZM39.6112 88.9444H16.6112V89.9444H39.6112V88.9444ZM16.6112 35H39.6112V34H16.6112V35ZM14.5557 86.8889V71.934H13.5557V86.8889H14.5557ZM41.6668 37.0556L41.6668 44.5918H42.6668L42.6668 37.0556L41.6668 37.0556ZM41.6668 47.9558L41.6668 86.8889L42.6668 86.8889L42.6668 47.9558H41.6668ZM14.5557 68.8403V67.5409H13.5557V68.8403H14.5557ZM14.5557 64.5709V37.0556H13.5557V64.5709H14.5557ZM16.6112 34C14.9237 34 13.5557 35.368 13.5557 37.0556H14.5557C14.5557 35.9203 15.476 35 16.6112 35V34ZM16.6112 88.9444C15.476 88.9444 14.5557 88.0241 14.5557 86.8889H13.5557C13.5557 88.5764 14.9237 89.9444 16.6112 89.9444V88.9444ZM39.6112 89.9444C41.2987 89.9444 42.6668 88.5764 42.6668 86.8889H41.6668C41.6668 88.0241 40.7465 88.9444 39.6112 88.9444V89.9444ZM39.6112 35C40.7465 35 41.6668 35.9203 41.6668 37.0556H42.6668C42.6668 35.368 41.2988 34 39.6112 34V35ZM35.4912 54.5348L22.7134 63.4793L23.2868 64.2985L36.0646 55.3541L35.4912 54.5348ZM34.2134 60.9237L21.4356 69.8682L22.0091 70.6874L34.7868 61.743L34.2134 60.9237ZM81.2779 15.3333V80.5H82.2779V15.3333L81.2779 15.3333ZM26.8334 12H35.8577V11H26.8334V12ZM39.5314 12H40.7559V11H39.5314V12ZM44.4295 12L77.9446 12V11L44.4295 11L44.4295 12ZM23.5001 29.9V15.3333H22.5001V29.9H23.5001ZM77.9445 83.8333H45.8581V84.8333H77.9445V83.8333ZM82.2779 15.3333C82.2779 12.9401 80.3378 11 77.9446 11V12C79.7855 12 81.2779 13.4924 81.2779 15.3333H82.2779ZM26.8334 11C24.4402 11 22.5001 12.9401 22.5001 15.3333H23.5001C23.5001 13.4924 24.9925 12 26.8334 12V11ZM81.2779 80.5C81.2779 82.3409 79.7855 83.8333 77.9445 83.8333V84.8333C80.3378 84.8333 82.2779 82.8932 82.2779 80.5H81.2779ZM28.1112 17.1111H76.6668V16.1111H28.1112V17.1111ZM28.6112 30.0278V16.6111H27.6112V30.0278H28.6112ZM76.1668 16.6111V32.9826H77.1668V16.6111H76.1668ZM76.1668 36.1771V36.9757H77.1668V36.1771H76.1668ZM76.1668 40.1701V74.1111H77.1668V40.1701H76.1668ZM49.8334 79.7222H53.6668V78.7222H49.8334V79.7222ZM68.706 22.5956L54.6505 32.8179L55.2386 33.6266L69.2942 23.4044L68.706 22.5956ZM67.4282 28.9845L53.3727 39.2067L53.9609 40.0155L68.0164 29.7933L67.4282 28.9845ZM76.6668 73.6111H45.9149V74.6111H76.6668V73.6111Z" fill="#bb9c66"/>
</svg>
