<svg width="92" height="92" viewBox="0 0 92 92" fill="none" xmlns="http://www.w3.org/2000/svg">
<path d="M45.9994 31.9445C45.9994 32.6502 45.4273 33.2223 44.7216 33.2223C44.0159 33.2223 43.4439 32.6502 43.4439 31.9445C43.4439 31.2388 44.0159 30.6667 44.7216 30.6667C45.4273 30.6667 45.9994 31.2388 45.9994 31.9445Z" fill="#bb9c66"/>
<path d="M45.9994 60.0556C45.9994 60.7613 45.4273 61.3334 44.7216 61.3334C44.0159 61.3334 43.4439 60.7613 43.4439 60.0556C43.4439 59.3499 44.0159 58.7779 44.7216 58.7779C45.4273 58.7779 45.9994 59.3499 45.9994 60.0556Z" fill="#bb9c66"/>
<path d="M53.2863 34.5648C52.8995 35.2352 52.0426 35.4648 51.3725 35.0777C50.7023 34.6905 50.4725 33.8332 50.8594 33.1628C51.2462 32.4924 52.103 32.2628 52.7732 32.6499C53.4434 33.0371 53.6731 33.8944 53.2863 34.5648Z" fill="#bb9c66"/>
<path d="M39.2813 58.8383C38.8945 59.5087 38.0376 59.7383 37.3674 59.3511C36.6972 58.9639 36.4675 58.1066 36.8543 57.4362C37.2412 56.7658 38.098 56.5362 38.7682 56.9233C39.4384 57.3105 39.6681 58.1679 39.2813 58.8383Z" fill="#bb9c66"/>
<path d="M57.8988 40.2072C57.2286 40.5944 56.3718 40.3648 55.985 39.6944C55.5981 39.024 55.8279 38.1666 56.4981 37.7795C57.1683 37.3923 58.0251 37.6219 58.4119 38.2923C58.7988 38.9627 58.569 39.82 57.8988 40.2072Z" fill="#bb9c66"/>
<path d="M33.641 54.2216C32.9708 54.6087 32.114 54.3791 31.7271 53.7087C31.3403 53.0383 31.5701 52.181 32.2402 51.7938C32.9104 51.4067 33.7673 51.6363 34.1541 52.3067C34.5409 52.9771 34.3112 53.8344 33.641 54.2216Z" fill="#bb9c66"/>
<path d="M56.4973 54.2205C55.8272 53.8333 55.5974 52.976 55.9842 52.3056C56.3711 51.6352 57.2279 51.4056 57.8981 51.7927C58.5683 52.1799 58.798 53.0373 58.4112 53.7077C58.0244 54.3781 57.1675 54.6077 56.4973 54.2205Z" fill="#bb9c66"/>
<path d="M32.2395 40.2067C31.5693 39.8195 31.3396 38.9622 31.7264 38.2918C32.1132 37.6214 32.9701 37.3918 33.6403 37.779C34.3105 38.1662 34.5402 39.0235 34.1534 39.6939C33.7666 40.3643 32.9097 40.5939 32.2395 40.2067Z" fill="#bb9c66"/>
<path d="M50.8582 58.8376C50.4713 58.1672 50.7011 57.3098 51.3713 56.9226C52.0415 56.5355 52.8983 56.7651 53.2851 57.4355C53.672 58.1059 53.4422 58.9632 52.772 59.3504C52.1018 59.7376 51.245 59.508 50.8582 58.8376Z" fill="#bb9c66"/>
<path d="M36.8531 34.5645C36.4663 33.8941 36.696 33.0367 37.3662 32.6495C38.0364 32.2624 38.8933 32.492 39.2801 33.1624C39.6669 33.8328 39.4372 34.6901 38.767 35.0773C38.0968 35.4645 37.24 35.2349 36.8531 34.5645Z" fill="#bb9c66"/>
<path d="M58.7772 47.2779C58.0715 47.2779 57.4994 46.7058 57.4994 46.0001C57.4994 45.2944 58.0715 44.7223 58.7772 44.7223C59.4829 44.7223 60.055 45.2944 60.055 46.0001C60.055 46.7058 59.4829 47.2779 58.7772 47.2779Z" fill="#bb9c66"/>
<path d="M30.6661 47.2779C29.9604 47.2779 29.3883 46.7058 29.3883 46.0001C29.3883 45.2944 29.9604 44.7223 30.6661 44.7223C31.3718 44.7223 31.9439 45.2944 31.9439 46.0001C31.9439 46.7058 31.3718 47.2779 30.6661 47.2779Z" fill="#bb9c66"/>
<path d="M44.7229 46.0751H44.2229C44.2229 46.2095 44.277 46.3382 44.3729 46.4322L44.7229 46.0751ZM45.2229 37.0555C45.2229 36.7794 44.9991 36.5555 44.7229 36.5555C44.4468 36.5555 44.2229 36.7794 44.2229 37.0555H45.2229ZM48.2062 50.1904C48.4034 50.3837 48.72 50.3805 48.9133 50.1834C49.1066 49.9862 49.1035 49.6696 48.9063 49.4763L48.2062 50.1904ZM56.1656 19.7123C55.9113 19.6046 55.6179 19.7235 55.5102 19.9778C55.4026 20.232 55.5214 20.5255 55.7757 20.6331L56.1656 19.7123ZM61.977 23.6514L62.2789 23.2528L61.977 23.6514ZM33.9828 72.2897C34.2371 72.3974 34.5305 72.2784 34.6381 72.0241C34.7457 71.7698 34.6268 71.4764 34.3725 71.3688L33.9828 72.2897ZM67.4062 62.9159L67.0074 62.6142L67.4062 62.9159ZM54.701 71.791C54.4422 71.8874 54.3106 72.1754 54.4071 72.4341C54.5035 72.6929 54.7915 72.8245 55.0502 72.728L54.701 71.791ZM67.5891 30.1707C67.7478 30.3967 68.0597 30.4512 68.2856 30.2925C68.5116 30.1338 68.5661 29.8219 68.4074 29.5959L67.5891 30.1707ZM70.8862 33.8757C70.7692 33.6256 70.4715 33.5177 70.2214 33.6348C69.9713 33.7519 69.8635 34.0495 69.9806 34.2996L70.8862 33.8757ZM20.4012 31.6932C20.2625 31.932 20.3436 32.238 20.5824 32.3767C20.8212 32.5154 21.1272 32.4343 21.2659 32.1955L20.4012 31.6932ZM22.0405 30.9404C22.1917 30.7094 22.127 30.3995 21.8959 30.2482C21.6649 30.097 21.355 30.1617 21.2038 30.3928L22.0405 30.9404ZM19.4474 35.9602C19.5482 35.7031 19.4215 35.413 19.1644 35.3122C18.9073 35.2114 18.6171 35.3382 18.5164 35.5953L19.4474 35.9602ZM23.9069 26.8821C23.7221 27.0874 23.7387 27.4035 23.944 27.5883C24.1492 27.773 24.4653 27.7564 24.6501 27.5512L23.9069 26.8821ZM34.3717 20.6335C34.6262 20.5263 34.7456 20.2331 34.6384 19.9786C34.5312 19.7241 34.238 19.6047 33.9835 19.7119L34.3717 20.6335ZM72.834 40.3889C72.5579 40.3889 72.334 40.6127 72.334 40.8889C72.334 41.165 72.5579 41.3889 72.834 41.3889V40.3889ZM72.834 50.6111C72.5579 50.6111 72.334 50.835 72.334 51.1111C72.334 51.3872 72.5579 51.6111 72.834 51.6111V50.6111ZM27.6907 23.4639C27.5871 23.7199 27.7107 24.0113 27.9667 24.1149C28.2227 24.2185 28.5142 24.0949 28.6177 23.8389L27.6907 23.4639ZM31.4232 15.5707L30.9665 15.3672C30.9641 15.3725 30.9618 15.3778 30.9597 15.3832L31.4232 15.5707ZM57.3987 15.4321L56.9551 15.6628V15.6628L57.3987 15.4321ZM60.8904 23.2307C61.0178 23.4757 61.3197 23.571 61.5647 23.4436C61.8097 23.3162 61.9051 23.0143 61.7777 22.7693L60.8904 23.2307ZM31.4232 76.4293L30.9594 76.6162C30.9617 76.6218 30.964 76.6273 30.9665 76.6328L31.4232 76.4293ZM57.3987 76.5679L56.9551 76.3372L57.3987 76.5679ZM61.7777 69.2307C61.9051 68.9857 61.8097 68.6838 61.5647 68.5564C61.3197 68.429 61.0178 68.5243 60.8904 68.7693L61.7777 69.2307ZM52.3896 89.4444V88.9444V89.4444ZM37.0563 89.4444L37.0563 89.9444H37.0563V89.4444ZM34.5007 86.8889H35.0007H34.5007ZM35.0007 82.873C35.0007 82.5969 34.7769 82.373 34.5007 82.373C34.2246 82.373 34.0007 82.5969 34.0007 82.873H35.0007ZM55.4452 77.9444C55.4452 77.6683 55.2213 77.4444 54.9452 77.4444C54.669 77.4444 54.4452 77.6683 54.4452 77.9444H55.4452ZM54.9452 86.8889H54.4452H54.9452ZM54.4452 9.12697C54.4452 9.40311 54.669 9.62697 54.9452 9.62697C55.2213 9.62697 55.4452 9.40311 55.4452 9.12697H54.4452ZM34.0007 14.0555C34.0007 14.3317 34.2246 14.5555 34.5007 14.5555C34.7769 14.5555 35.0007 14.3317 35.0007 14.0555H34.0007ZM39.9526 3.63367L40.3752 3.36651V3.36651L39.9526 3.63367ZM40.8896 83.8333C40.6135 83.8333 40.3896 84.0572 40.3896 84.3333C40.3896 84.6095 40.6135 84.8333 40.8896 84.8333V83.8333ZM48.5563 84.8333C48.8324 84.8333 49.0563 84.6095 49.0563 84.3333C49.0563 84.0572 48.8324 83.8333 48.5563 83.8333V84.8333ZM40.8896 8.44443C40.6135 8.44443 40.3896 8.66829 40.3896 8.94443C40.3896 9.22057 40.6135 9.44443 40.8896 9.44443V8.44443ZM48.5563 9.44443C48.8324 9.44443 49.0563 9.22057 49.0563 8.94443C49.0563 8.66829 48.8324 8.44443 48.5563 8.44443V9.44443ZM45.2229 46.0751V37.0555H44.2229V46.0751H45.2229ZM44.3729 46.4322L48.2062 50.1904L48.9063 49.4763L45.073 45.7181L44.3729 46.4322ZM55.7757 20.6331C57.831 21.5033 59.8135 22.6399 61.6752 24.05L62.2789 23.2528C60.3508 21.7925 58.2965 20.6145 56.1656 19.7123L55.7757 20.6331ZM34.3725 71.3688C32.3153 70.4983 30.3312 69.361 28.4679 67.9498L27.8642 68.747C29.7939 70.2085 31.8501 71.3873 33.9828 72.2897L34.3725 71.3688ZM67.0074 62.6142C63.7341 66.9415 59.4319 70.0276 54.701 71.791L55.0502 72.728C59.954 70.9002 64.4136 67.7007 67.805 63.2175L67.0074 62.6142ZM61.6752 24.05C64.0137 25.8212 65.9892 27.8931 67.5891 30.1707L68.4074 29.5959C66.7487 27.2346 64.7011 25.0873 62.2789 23.2528L61.6752 24.05ZM69.9806 34.2996C74.1735 43.2576 73.3869 54.1808 67.0074 62.6142L67.805 63.2175C74.417 54.4767 75.2302 43.1562 70.8862 33.8757L69.9806 34.2996ZM21.2659 32.1955C21.5116 31.7725 21.7698 31.354 22.0405 30.9404L21.2038 30.3928C20.9233 30.8212 20.6558 31.2549 20.4012 31.6932L21.2659 32.1955ZM28.4679 67.9498C18.4164 60.3369 15.0602 47.1539 19.4474 35.9602L18.5164 35.5953C13.9701 47.1948 17.4462 60.8565 27.8642 68.747L28.4679 67.9498ZM24.6501 27.5512C27.4172 24.4772 30.7514 22.1585 34.3717 20.6335L33.9835 19.7119C30.231 21.2926 26.7747 23.6963 23.9069 26.8821L24.6501 27.5512ZM72.834 41.3889H75.3896V40.3889H72.834V41.3889ZM76.1674 42.1667V49.8333H77.1674V42.1667H76.1674ZM75.3896 50.6111H72.834V51.6111H75.3896V50.6111ZM76.1674 49.8333C76.1674 50.2629 75.8192 50.6111 75.3896 50.6111V51.6111C76.3714 51.6111 77.1674 50.8152 77.1674 49.8333H76.1674ZM75.3896 41.3889C75.8192 41.3889 76.1674 41.7371 76.1674 42.1667H77.1674C77.1674 41.1848 76.3714 40.3889 75.3896 40.3889V41.3889ZM28.6177 23.8389L31.8867 15.7582L30.9597 15.3832L27.6907 23.4639L28.6177 23.8389ZM56.9551 15.6628L60.8904 23.2307L61.7777 22.7693L57.8423 15.2014L56.9551 15.6628ZM57.8423 15.2014C57.3164 14.1901 56.2713 13.5555 55.1314 13.5555V14.5555C55.8983 14.5555 56.6013 14.9824 56.9551 15.6628L57.8423 15.2014ZM31.8799 15.7743C32.2102 15.033 32.9458 14.5555 33.7574 14.5555V13.5555C32.551 13.5555 31.4576 14.2653 30.9665 15.3672L31.8799 15.7743ZM27.7023 68.5353L30.9594 76.6162L31.8869 76.2423L28.6298 68.1615L27.7023 68.5353ZM57.8423 76.7986L61.7777 69.2307L60.8904 68.7693L56.9551 76.3372L57.8423 76.7986ZM56.9551 76.3372C56.6013 77.0176 55.8983 77.4444 55.1314 77.4444V78.4444C56.2713 78.4444 57.3164 77.8099 57.8423 76.7986L56.9551 76.3372ZM30.9665 76.6328C31.4576 77.7347 32.551 78.4444 33.7574 78.4444V77.4444C32.9458 77.4444 32.2102 76.967 31.8799 76.2257L30.9665 76.6328ZM52.3896 88.9444H37.0563V89.9444H52.3896V88.9444ZM35.0007 86.8889V82.873H34.0007V86.8889H35.0007ZM54.4452 77.9444V86.8889H55.4452V77.9444H54.4452ZM37.0563 88.9444C35.921 88.9444 35.0007 88.0241 35.0007 86.8889H34.0007C34.0007 88.5764 35.3687 89.9444 37.0563 89.9444L37.0563 88.9444ZM52.3896 89.9444C54.0771 89.9444 55.4452 88.5764 55.4452 86.8889H54.4452C54.4452 88.0241 53.5249 88.9444 52.3896 88.9444V89.9444ZM54.4452 5.1111V9.12697H55.4452V5.1111H54.4452ZM35.0007 14.0555V5.1111H34.0007V14.0555H35.0007ZM37.0563 3.05554H37.9956V2.05554H37.0563V3.05554ZM52.1317 3.05554H52.3896V2.05554H52.1317V3.05554ZM41.9095 5.21179H48.2179V4.21179H41.9095V5.21179ZM48.2179 5.21179C49.1834 5.21179 50.0816 4.71697 50.5974 3.90082L49.7521 3.36651C49.4195 3.89274 48.8404 4.21179 48.2179 4.21179V5.21179ZM37.9956 3.05554C38.6182 3.05554 39.1973 3.37459 39.5299 3.90082L40.3752 3.36651C39.8593 2.55036 38.9612 2.05554 37.9956 2.05554V3.05554ZM39.5299 3.90082C40.0458 4.71697 40.944 5.21179 41.9095 5.21179V4.21179C41.287 4.21179 40.7078 3.89274 40.3752 3.36651L39.5299 3.90082ZM55.4452 5.1111C55.4452 3.42356 54.0771 2.05554 52.3896 2.05554V3.05554C53.5249 3.05554 54.4452 3.97585 54.4452 5.1111H55.4452ZM52.1317 2.05554C51.1662 2.05554 50.268 2.55036 49.7521 3.36651L50.5974 3.90082C50.9301 3.37459 51.5092 3.05554 52.1317 3.05554V2.05554ZM35.0007 5.1111C35.0007 3.97585 35.921 3.05554 37.0563 3.05554V2.05554C35.3687 2.05554 34.0007 3.42356 34.0007 5.1111H35.0007ZM63.3896 46C63.3896 55.5872 55.335 63.3889 45.3618 63.3889V64.3889C55.8539 64.3889 64.3896 56.1723 64.3896 46H63.3896ZM45.3618 63.3889C35.3887 63.3889 27.3341 55.5872 27.3341 46H26.3341C26.3341 56.1723 34.8698 64.3889 45.3618 64.3889V63.3889ZM27.3341 46C27.3341 36.4128 35.3887 28.6111 45.3618 28.6111V27.6111C34.8698 27.6111 26.3341 35.8277 26.3341 46H27.3341ZM45.3618 28.6111C55.335 28.6111 63.3896 36.4128 63.3896 46H64.3896C64.3896 35.8277 55.8539 27.6111 45.3618 27.6111V28.6111ZM40.8896 84.8333H48.5563V83.8333H40.8896V84.8333ZM40.8896 9.44443H48.5563V8.44443H40.8896V9.44443ZM33.7574 14.5555H55.1314V13.5555H33.7574V14.5555ZM33.7574 78.4444H55.1314V77.4444H33.7574V78.4444Z" fill="#bb9c66"/>
</svg>
