<svg width="45" height="71" viewBox="0 0 45 71" fill="#bb9c66" xmlns="http://www.w3.org/2000/svg">
<path d="M15.1359 48.0872L15.5679 47.8354L15.1359 48.0872ZM3.4097 27.9668L2.97772 28.2186L3.4097 27.9668ZM36.7492 38.7063L37.1812 38.4545L36.7492 38.7063ZM43.2638 49.8842L42.8318 50.136L43.2638 49.8842ZM23.8136 37.1624L24.2456 36.9106L23.8136 37.1624ZM16.6476 24.8666L16.2156 25.1183L16.6476 24.8666ZM31.4098 37.2889L31.1615 36.8549L31.4098 37.2889ZM29.1531 38.5797L29.4013 39.0137L29.1531 38.5797ZM18.0783 19.5771L17.8301 19.1431L18.0783 19.5771ZM20.335 18.2864L20.5833 18.7204L20.335 18.2864ZM15.9026 2.93673L16.3346 2.68496L15.9026 2.93673ZM21.7657 12.9969L21.3337 13.2487L21.7657 12.9969ZM10.5632 1.51942L10.3149 1.08539L10.5632 1.51942ZM41.8331 55.1737L42.0813 55.6077L41.8331 55.1737ZM7.69741 4.64414C7.55836 4.40556 7.25224 4.32487 7.01366 4.46391C6.77508 4.60296 6.69439 4.90909 6.83343 5.14767L7.69741 4.64414ZM13.9994 17.4434C14.1385 17.682 14.4446 17.7627 14.6832 17.6237C14.9218 17.4846 15.0025 17.1785 14.8634 16.9399L13.9994 17.4434ZM39.3963 67.2181L39.3963 66.7181L39.3963 67.2181ZM23.4239 66.718C23.1478 66.718 22.9239 66.9418 22.9239 67.218C22.9239 67.4941 23.1478 67.718 23.4239 67.718L23.4239 66.718ZM30.3662 42.4353C30.2231 42.1991 29.9157 42.1236 29.6795 42.2666C29.4433 42.4097 29.3678 42.7171 29.5108 42.9533L30.3662 42.4353ZM35.3739 52.6337C35.517 52.8699 35.8244 52.9454 36.0606 52.8023C36.2968 52.6593 36.3723 52.3518 36.2293 52.1156L35.3739 52.6337ZM42.229 61.7325L42.6332 61.4381L42.6284 61.4316L42.229 61.7325ZM41.4126 59.8182C41.2464 59.5976 40.9329 59.5536 40.7123 59.7197C40.4918 59.8859 40.4477 60.1994 40.6139 60.42L41.4126 59.8182ZM16.5043 65.2771C16.3653 65.0385 16.0592 64.9578 15.8206 65.0968C15.582 65.2359 15.5013 65.542 15.6404 65.7806L16.5043 65.2771ZM18.2462 70.2518C18.3852 70.4903 18.6914 70.571 18.9299 70.432C19.1685 70.2929 19.2492 69.9868 19.1102 69.7482L18.2462 70.2518ZM11.8166 64.9777C11.6776 64.7391 11.3714 64.6584 11.1328 64.7975C10.8943 64.9365 10.8136 65.2426 10.9526 65.4812L11.8166 64.9777ZM13.5584 69.9524C13.6975 70.191 14.0036 70.2717 14.2422 70.1326C14.4808 69.9936 14.5615 69.6875 14.4224 69.4489L13.5584 69.9524ZM8.23521 64.4111C8.11079 64.1646 7.81008 64.0656 7.56356 64.19C7.31703 64.3144 7.21805 64.6151 7.34247 64.8616L8.23521 64.4111ZM9.29685 68.7339C9.42127 68.9805 9.72198 69.0795 9.9685 68.955C10.215 68.8306 10.314 68.5299 10.1896 68.2834L9.29685 68.7339ZM15.5679 47.8354L3.84169 27.715L2.97772 28.2186L14.7039 48.3389L15.5679 47.8354ZM36.3172 38.958L42.8318 50.136L43.6958 49.6325L37.1812 38.4545L36.3172 38.958ZM24.2456 36.9106L17.0796 24.6148L16.2156 25.1183L23.3816 37.4141L24.2456 36.9106ZM31.1615 36.8549L28.9048 38.1456L29.4013 39.0137L31.658 37.723L31.1615 36.8549ZM18.3266 20.0111L20.5833 18.7204L20.0868 17.8524L17.8301 19.1431L18.3266 20.0111ZM17.0796 24.6148C16.1412 23.0047 16.6962 20.9436 18.3266 20.0111L17.8301 19.1431C15.7214 20.3491 14.9953 23.0244 16.2156 25.1183L17.0796 24.6148ZM23.3816 37.4141C24.6004 39.5052 27.2954 40.2182 29.4013 39.0137L28.9048 38.1456C27.2717 39.0797 25.1856 38.5235 24.2456 36.9106L23.3816 37.4141ZM37.1812 38.4545C35.9625 36.3634 33.2675 35.6504 31.1615 36.8549L31.658 37.723C33.2911 36.7889 35.3772 37.3451 36.3172 38.958L37.1812 38.4545ZM20.5833 18.7204C22.6919 17.5144 23.4181 14.8391 22.1977 12.7451L21.3337 13.2487C22.2721 14.8588 21.7172 16.9199 20.0868 17.8524L20.5833 18.7204ZM3.84169 27.715C-1.41417 18.6968 1.70297 7.16301 10.8114 1.95344L10.3149 1.08539C0.728215 6.56851 -2.5601 18.7165 2.97772 28.2186L3.84169 27.715ZM41.5848 54.7397C32.4737 59.9508 20.8254 56.8564 15.5679 47.8354L14.7039 48.3389C20.2401 57.8382 32.4973 61.0893 42.0813 55.6077L41.5848 54.7397ZM42.0813 55.6077C44.19 54.4017 44.9161 51.7264 43.6958 49.6325L42.8318 50.136C43.7702 51.7461 43.2152 53.8072 41.5848 54.7397L42.0813 55.6077ZM10.8114 1.95344C12.4445 1.0194 14.5306 1.57556 15.4706 3.18849L16.3346 2.68496C15.1159 0.593839 12.4209 -0.119097 10.3149 1.08539L10.8114 1.95344ZM6.83343 5.14767L13.9994 17.4434L14.8634 16.9399L7.69741 4.64414L6.83343 5.14767ZM39.3963 66.7181L23.4239 66.718L23.4239 67.718L39.3963 67.7181L39.3963 66.7181ZM29.5108 42.9533L35.3739 52.6337L36.2293 52.1156L30.3662 42.4353L29.5108 42.9533ZM42.6284 61.4316L41.4126 59.8182L40.6139 60.42L41.8297 62.0334L42.6284 61.4316ZM39.3963 67.7181C42.6452 67.7181 44.5463 64.0645 42.6332 61.4381L41.8249 62.0269C43.2461 63.978 41.8454 66.7181 39.3963 66.7181L39.3963 67.7181ZM15.6404 65.7806L18.2462 70.2518L19.1102 69.7482L16.5043 65.2771L15.6404 65.7806ZM10.9526 65.4812L13.5584 69.9524L14.4224 69.4489L11.8166 64.9777L10.9526 65.4812ZM7.34247 64.8616L9.29685 68.7339L10.1896 68.2834L8.23521 64.4111L7.34247 64.8616ZM15.4706 3.18849L21.3337 13.2487L22.1977 12.7451L16.3346 2.68496L15.4706 3.18849Z" fill="#bb9c66"/>
</svg>
